<?xml version="1.0" encoding="utf-8"?>
<!-- Generator: Adobe Illustrator 16.0.0, SVG Export Plug-In . SVG Version: 6.00 Build 0)  -->
<!DOCTYPE svg PUBLIC "-//W3C//DTD SVG 1.1//EN" "http://www.w3.org/Graphics/SVG/1.1/DTD/svg11.dtd">
<svg version="1.1" id="Layer_1" xmlns="http://www.w3.org/2000/svg" xmlns:xlink="http://www.w3.org/1999/xlink" x="0px" y="0px"
	 width="1520px" height="80px" viewBox="0 0 1520 80" enable-background="new 0 0 1520 80" xml:space="preserve">
<g id="Layer_1_2_">
	<g id="Layer_1_1_">
		<rect y="56.625" width="79.167" height="12"/>
		<rect y="33.625" width="79.167" height="12"/>
		<rect x="80" y="10.625" width="79.167" height="12"/>
		<rect x="80" y="56.625" width="79.167" height="12"/>
		<rect x="80.25" y="41.625" width="78.667" height="6"/>
		<rect x="80.25" y="31.625" width="78.667" height="6"/>
		<rect x="160" y="10.625" width="79.25" height="12"/>
		<rect x="160" y="56.625" width="79.25" height="12"/>
		<rect x="160" y="43.625" width="79.25" height="6"/>
		<rect x="160" y="29.625" width="79.25" height="6"/>
		<rect x="240" y="10.625" width="79.25" height="12"/>
		<rect x="240" y="56.625" width="79.25" height="12"/>
		<rect x="240" y="45.625" width="79.25" height="6"/>
		<rect x="240" y="27.625" width="79.25" height="6"/>
		<rect x="320" y="10.625" width="79.5" height="12"/>
		<rect x="320" y="56.625" width="79.25" height="12"/>
		<rect x="320" y="47.625" width="79.25" height="6"/>
		<rect x="320" y="25.625" width="79.25" height="6"/>
		<rect x="400" y="10.625" width="79.083" height="19"/>
		<rect x="400" y="49.625" width="79.083" height="19"/>
		<rect x="480" y="10.625" width="79.417" height="17"/>
		<rect x="480" y="51.625" width="79.417" height="17"/>
		<rect x="560" y="10.625" width="79.333" height="15"/>
		<rect x="560" y="53.625" width="79.417" height="15"/>
		<rect x="640" y="10.625" width="79.333" height="13"/>
		<rect x="640" y="55.625" width="79.667" height="13"/>
		<rect x="720" y="8.624" width="78.834" height="12.001"/>
		<rect x="720" y="58.625" width="78.834" height="12"/>
		<rect y="10.625" width="79.167" height="12"/>
		<polygon points="875.018,79.489 802.015,65.695 803.947,53.966 876.947,67.759 		"/>
		<polygon points="877.521,11.412 803.696,25.086 801.744,13.45 875.568,-0.225 		"/>
		<polygon points="954.326,79.665 883.188,52.07 887.07,40.699 958.209,68.294 		"/>
		<polygon points="958.598,10.957 886.777,38.49 882.855,27.142 954.676,-0.392 		"/>
		<polygon points="1030.867,79.607 961.011,37.088 967.058,26.041 1036.916,68.563 		"/>
		<polygon points="960.896,42.502 1030.933,1.375 1036.996,12.06 966.959,53.188 		"/>
		<polygon points="1044.124,24.874 1118.835,69.27 1115.412,79.029 1040.702,34.636 		"/>
		<polygon points="1040.466,41.988 1114.813,0.397 1118.444,9.938 1044.099,51.529 		"/>
	</g>
	<g id="Layer_2">
		<g id="Layer_3">
		</g>
		<polygon points="1289.334,6.303 1354.964,70.241 1348.521,79.163 1282.892,15.225 		"/>
		<polygon points="1282.432,66.66 1348.479,1.177 1354.952,10.308 1288.904,75.789 		"/>
		<polygon points="1208.209,12.459 1277.224,70.146 1271.771,79.504 1202.756,21.815 		"/>
		<polygon points="1202.629,55.747 1271.934,1.177 1277.533,10.19 1208.227,64.762 		"/>
		<polygon points="1125.188,17.818 1198.25,70.061 1193.749,79.896 1120.686,27.654 		"/>
		<polygon points="1120.913,49.42 1194.208,0.116 1198.888,9.645 1125.592,58.95 		"/>
	</g>
</g>
<g id="Layer_2_1_">
	<polygon points="1520.545,71.633 1489.063,40.069 1520.545,8.667 1512.008,0.154 1480.578,31.584 1448.988,0.076 1440.504,8.561 
		1471.943,40 1440.664,71.498 1449.063,79.109 1449.566,79.564 1481.501,49.5 1512.061,80.117 	"/>
	<polygon points="1438.045,71.536 1407.414,39.972 1438.045,8.57 1429.739,0.058 1399.16,31.487 1368.425,-0.021 1360.17,8.464 
		1390.759,39.903 1360.326,71.4 1368.497,79.014 1368.987,79.469 1400.058,49.402 1429.79,80.021 	"/>
</g>
</svg>
