<?xml version="1.0" encoding="utf-8"?>
<!-- Generator: Adobe Illustrator 16.0.0, SVG Export Plug-In . SVG Version: 6.00 Build 0)  -->
<!DOCTYPE svg PUBLIC "-//W3C//DTD SVG 1.1//EN" "http://www.w3.org/Graphics/SVG/1.1/DTD/svg11.dtd">
<svg version="1.1" xmlns="http://www.w3.org/2000/svg" xmlns:xlink="http://www.w3.org/1999/xlink" x="0px" y="0px"
	 width="144.542px" height="144.617px" viewBox="0 0 144.542 144.617" enable-background="new 0 0 144.542 144.617"
	 xml:space="preserve">
<g id="Layer_4" display="none">
</g>
<g id="Layer_2" display="none">
	<rect x="54.083" y="8.042" display="inline" fill="#FEE48D" width="36.442" height="57.93"/>
	<line display="inline" stroke="#000000" stroke-miterlimit="10" x1="56.215" y1="34.094" x2="88.131" y2="34.094"/>
	<line display="inline" stroke="#000000" stroke-miterlimit="10" x1="56.215" y1="23.673" x2="88.131" y2="23.673"/>
	<path display="inline" fill="#C9202F" d="M64.143-3.238c0,0,6.27-3.82,7.72-4.6c-0.35,1.03-3.73,4.97-4.44,5.41
		c-0.71,0.43-0.67,0.87-1.02,1c-0.36,0.13-1.98,1.75-4.4,4.74c1.721,4.02,5.98,0.86,5.98,0.86s7.47-6.97,9.08-8.38
		c0.92-0.24,3.95-1.41,5.17-2.13c-0.341,0.23-3.19,2.22-2.83,3.48c0.38,1.35-1.319,7.14-1.41,8c-0.09,0.75,0.31,0.91,0.41,2.9
		c0.01,0.2,0.021,0.42,0.021,0.66c0.01,0.11,0.01,0.23,0.01,0.35c0.01,2.96,1.63,3.32,2.92,2.5c0.619-0.4,1.1-1.56,1.41-2.85
		c0.05-0.22,0.1-0.44,0.14-0.66c0.22-1.15,0.319-2.32,0.29-3.06c0.66-0.59,1.59-3.09,2.23-5.36c1.219-0.12,4.33-3.23,4.819-3.87
		c0.41,0.11,1.479-0.56,1.58-0.8c0,0,1.67,0.25,2.36-0.58c-0.051,0.57,1.13,2.25,1.13,2.25s-0.28,0.3,0.229,1.35
		c-0.51,2.5,0.67,4.27,0.67,4.27s-0.06,0.33-4,3.9c-1.57,0.62-2.83,1.26-3.82,1.9h2.25v5.93c1.311-0.54,2.771-0.96,3.9-1.3
		c2.061-1.95,6.971-4.32,8.521-4.96s2.229-1.19,3.09-2.43c0.75-0.05,1.81-0.62,5.04-3.5v3.97h44.29v-22.52h-44.29v1.02
		c-6.51,2.92-15.57-2.81-22.859-2.72c-8.771,4.27-21.081,3.87-24.78,4.16c-1.61,2.78,2.119,3.6,3.43,3.7c0,0-4.57,3-7.47,4.98
		C58.533-1.478,64.143-3.238,64.143-3.238z"/>
	<line display="inline" stroke="#000000" stroke-miterlimit="10" x1="69.376" y1="18.462" x2="88.131" y2="18.462"/>
	<line display="inline" stroke="#000000" stroke-miterlimit="10" x1="56.215" y1="18.462" x2="65.257" y2="18.462"/>
	<line display="inline" stroke="#000000" stroke-miterlimit="10" x1="69.376" y1="28.883" x2="88.131" y2="28.883"/>
	<line display="inline" stroke="#000000" stroke-miterlimit="10" x1="56.215" y1="28.883" x2="65.257" y2="28.883"/>
	<line display="inline" stroke="#000000" stroke-miterlimit="10" x1="69.376" y1="39.305" x2="88.131" y2="39.305"/>
	<line display="inline" stroke="#000000" stroke-miterlimit="10" x1="56.215" y1="39.305" x2="65.257" y2="39.305"/>
	<line display="inline" stroke="#000000" stroke-miterlimit="10" x1="56.215" y1="13.251" x2="65.257" y2="13.251"/>
</g>
<g id="Layer_3" display="none">
</g>
<g id="Layer_1" display="none">
	<g display="inline">
		<path fill="#323D38" d="M112.555,157.488c0,5.513-4.47,9.983-9.983,9.983H42.675c-5.513,0-9.982-4.471-9.982-9.983V53.822
			c0-5.513,4.47-9.982,9.982-9.982h59.897c5.514,0,9.983,4.469,9.983,9.982V157.488z"/>
		<g>
			<circle fill="#FFFFFF" cx="72.382" cy="83.427" r="26.598"/>
			<polygon fill="#ABABAB" points="73.381,82.455 73.375,82.455 70.655,82.455 70.649,82.455 60.446,82.455 60.446,85.182 
				70.649,85.182 70.649,101.888 70.655,101.888 73.375,101.888 73.381,101.888 			"/>
			<polygon fill="#BC2726" points="73.762,82.074 73.754,82.074 71.036,82.074 71.03,82.074 60.827,82.074 60.827,84.8 71.03,84.8 
				71.03,101.508 71.036,101.508 73.754,101.508 73.762,101.508 			"/>
			<rect x="72.202" y="58.194" width="0.38" height="2.662"/>
			<rect x="84.161" y="61.398" transform="matrix(0.8667 0.4988 -0.4988 0.8667 42.5278 -33.7118)" width="0.381" height="2.663"/>
			
				<rect x="84.155" y="102.824" transform="matrix(-0.8671 0.4981 -0.4981 -0.8671 209.3596 152.4609)" width="0.378" height="2.663"/>
			<rect x="72.194" y="106.024" width="0.38" height="2.662"/>
			<rect x="60.236" y="102.815" transform="matrix(-0.8655 -0.5008 0.5008 -0.8655 60.568 224.5524)" width="0.38" height="2.662"/>
			<rect x="51.486" y="94.056" transform="matrix(-0.4989 -0.8667 0.8667 -0.4989 -5.2111 187.7614)" width="0.38" height="2.662"/>
			<rect x="47.146" y="83.236" width="2.663" height="0.381"/>
			<rect x="51.499" y="70.139" transform="matrix(0.5018 -0.865 0.865 0.5018 -36.069 80.3173)" width="0.38" height="2.662"/>
			<rect x="60.259" y="61.389" transform="matrix(0.8675 -0.4974 0.4974 0.8675 -23.1886 38.3751)" width="0.38" height="2.663"/>
			<path d="M72.393,110.113c-14.731,0-26.673-11.941-26.673-26.672c0-14.732,11.942-26.673,26.673-26.673
				c7.364,0,14.033,2.986,18.86,7.812l2.959-2.959c-2.834-2.832-6.135-5.057-9.808-6.61c-3.808-1.612-7.85-2.426-12.012-2.426
				c-4.164,0-8.205,0.814-12.013,2.426c-3.676,1.554-6.974,3.779-9.807,6.61c-2.832,2.833-5.057,6.133-6.611,9.808
				c-1.61,3.808-2.426,7.849-2.426,12.013c0,4.162,0.816,8.203,2.426,12.011c1.554,3.675,3.779,6.974,6.611,9.809
				c2.833,2.831,6.131,5.056,9.807,6.609c3.808,1.611,7.849,2.428,12.013,2.428c4.162,0,8.204-0.816,12.012-2.428
				c3.673-1.554,6.974-3.778,9.808-6.609l-2.959-2.961C86.426,107.127,79.757,110.113,72.393,110.113z"/>
			<rect x="72.202" y="58.194" width="0.38" height="2.662"/>
			<rect x="84.161" y="61.398" transform="matrix(0.8667 0.4988 -0.4988 0.8667 42.5278 -33.7118)" width="0.381" height="2.663"/>
			
				<rect x="84.155" y="102.824" transform="matrix(-0.8671 0.4981 -0.4981 -0.8671 209.3596 152.4609)" width="0.378" height="2.663"/>
			<rect x="72.194" y="106.024" width="0.38" height="2.662"/>
			<rect x="60.236" y="102.815" transform="matrix(-0.8655 -0.5008 0.5008 -0.8655 60.568 224.5524)" width="0.38" height="2.662"/>
			<rect x="51.486" y="94.056" transform="matrix(-0.4989 -0.8667 0.8667 -0.4989 -5.2111 187.7614)" width="0.38" height="2.662"/>
			<rect x="47.146" y="83.236" width="2.663" height="0.381"/>
			<rect x="51.499" y="70.139" transform="matrix(0.5018 -0.865 0.865 0.5018 -36.069 80.3173)" width="0.38" height="2.662"/>
			<rect x="60.259" y="61.389" transform="matrix(0.8675 -0.4974 0.4974 0.8675 -23.1886 38.3751)" width="0.38" height="2.663"/>
			<path d="M72.393,110.113c-14.731,0-26.673-11.941-26.673-26.672c0-14.732,11.942-26.673,26.673-26.673
				c7.364,0,14.033,2.986,18.86,7.812l2.959-2.959c-2.834-2.832-6.135-5.057-9.808-6.61c-3.808-1.612-7.85-2.426-12.012-2.426
				c-4.164,0-8.205,0.814-12.013,2.426c-3.676,1.554-6.974,3.779-9.807,6.61c-2.832,2.833-5.057,6.133-6.611,9.808
				c-1.61,3.808-2.426,7.849-2.426,12.013c0,4.162,0.816,8.203,2.426,12.011c1.554,3.675,3.779,6.974,6.611,9.809
				c2.833,2.831,6.131,5.056,9.807,6.609c3.808,1.611,7.849,2.428,12.013,2.428c4.162,0,8.204-0.816,12.012-2.428
				c3.673-1.554,6.974-3.778,9.808-6.609l-2.959-2.961C86.426,107.127,79.757,110.113,72.393,110.113z"/>
			<rect x="47.16" y="83.237" width="2.663" height="0.381"/>
			<rect x="51.506" y="70.138" transform="matrix(0.4999 -0.8661 0.8661 0.4999 -36.0446 80.5171)" width="0.38" height="2.662"/>
			<rect x="92.931" y="70.145" transform="matrix(0.4997 0.8662 -0.8662 0.4997 108.4982 -44.9027)" width="0.381" height="2.662"/>
			<rect x="94.99" y="83.246" width="2.662" height="0.382"/>
			<rect x="92.922" y="94.062" transform="matrix(-0.5008 0.8655 -0.8655 -0.5008 222.3129 62.5764)" width="0.38" height="2.662"/>
			
				<rect x="84.164" y="102.812" transform="matrix(-0.8655 0.5008 -0.5008 -0.8655 209.5249 152.0379)" width="0.38" height="2.663"/>
			<rect x="72.203" y="106.011" width="0.38" height="2.661"/>
			<rect x="60.245" y="102.8" transform="matrix(-0.867 -0.4984 0.4984 -0.867 60.9373 224.5287)" width="0.38" height="2.663"/>
			<rect x="51.497" y="94.04" transform="matrix(-0.4978 -0.8673 0.8673 -0.4978 -5.2978 187.6736)" width="0.381" height="2.662"/>
			<rect x="47.16" y="83.237" width="2.663" height="0.381"/>
			<rect x="51.506" y="70.138" transform="matrix(0.4999 -0.8661 0.8661 0.4999 -36.0446 80.5171)" width="0.38" height="2.662"/>
			<rect x="92.931" y="70.145" transform="matrix(0.4997 0.8662 -0.8662 0.4997 108.4982 -44.9027)" width="0.381" height="2.662"/>
			<rect x="94.99" y="83.246" width="2.662" height="0.382"/>
			<path d="M72.383,52.548c-17.053,0-30.877,13.825-30.877,30.878c0,17.055,13.824,30.879,30.877,30.879
				c17.055,0,30.878-13.824,30.878-30.879C103.261,66.376,89.438,52.548,72.383,52.548z M72.383,110.024
				c-14.689,0-26.599-11.908-26.599-26.598c0-14.688,11.91-26.598,26.599-26.598c14.689,0,26.597,11.909,26.597,26.598
				C98.98,98.116,87.073,110.024,72.383,110.024z"/>
			<rect x="92.922" y="94.062" transform="matrix(-0.5008 0.8655 -0.8655 -0.5008 222.3129 62.5764)" width="0.38" height="2.662"/>
			
				<rect x="84.164" y="102.812" transform="matrix(-0.8655 0.5008 -0.5008 -0.8655 209.5249 152.0379)" width="0.38" height="2.663"/>
			<rect x="72.203" y="106.011" width="0.38" height="2.661"/>
			<rect x="60.245" y="102.8" transform="matrix(-0.867 -0.4984 0.4984 -0.867 60.9373 224.5287)" width="0.38" height="2.663"/>
			<rect x="51.497" y="94.04" transform="matrix(-0.4978 -0.8673 0.8673 -0.4978 -5.2978 187.6736)" width="0.381" height="2.662"/>
		</g>
		
			<line fill="none" stroke="#000000" stroke-width="5" stroke-linecap="square" stroke-miterlimit="10" x1="46.444" y1="144.614" x2="98.803" y2="144.614"/>
		
			<line fill="none" stroke="#000000" stroke-width="5" stroke-linecap="square" stroke-miterlimit="10" x1="46.444" y1="154.271" x2="98.803" y2="154.271"/>
		<circle fill="#42B649" cx="41.536" cy="52.548" r="5.61"/>
		<circle fill="#C9202F" cx="103.262" cy="52.548" r="5.61"/>
		<line fill="none" stroke="#C9202F" stroke-width="2" stroke-miterlimit="10" x1="103.189" y1="40.545" x2="103.189" y2="32.607"/>
		<line fill="none" stroke="#C9202F" stroke-width="2" stroke-miterlimit="10" x1="111.677" y1="44.061" x2="117.291" y2="38.448"/>
		<line fill="none" stroke="#C9202F" stroke-width="2" stroke-miterlimit="10" x1="115.193" y1="52.548" x2="123.13" y2="52.549"/>
	</g>
</g>
<g id="Layer_5">
	<g>
		<circle fill="#FFFFFF" cx="72.233" cy="72.308" r="62.284"/>
		<polygon fill="#BC2726" points="76.79,72.338 104.444,44.683 104.434,44.673 99.933,40.172 99.92,40.16 72.266,67.815 
			44.61,40.159 44.6,40.169 40.098,44.671 40.085,44.683 67.741,72.339 40.085,99.995 40.095,100.004 44.597,104.506 44.61,104.519 
			72.265,76.863 99.92,104.519 99.93,104.508 104.431,100.006 104.444,99.993 		"/>
		<rect x="71.811" y="13.22" width="0.892" height="6.234"/>
		<rect x="99.816" y="20.724" transform="matrix(0.8666 0.499 -0.499 0.8666 25.274 -46.8525)" width="0.891" height="6.236"/>
		
			<rect x="99.801" y="117.73" transform="matrix(-0.8676 0.4972 -0.4972 -0.8676 247.3052 175.8559)" width="0.886" height="6.235"/>
		<rect x="71.791" y="125.225" width="0.892" height="6.233"/>
		<rect x="43.792" y="117.709" transform="matrix(-0.8646 -0.5024 0.5024 -0.8646 21.7812 247.52)" width="0.888" height="6.233"/>
		<rect x="23.3" y="97.199" transform="matrix(-0.4992 -0.8665 0.8665 -0.4992 -51.328 170.9641)" width="0.889" height="6.234"/>
		<rect x="13.138" y="71.861" width="6.236" height="0.892"/>
		<rect x="23.332" y="41.192" transform="matrix(0.501 -0.8655 0.8655 0.501 -26.4823 42.6899)" width="0.891" height="6.233"/>
		<rect x="43.845" y="20.702" transform="matrix(0.8671 -0.4981 0.4981 0.8671 -5.9797 25.2254)" width="0.889" height="6.236"/>
		<path d="M72.258,134.799c-34.497,0-62.462-27.963-62.462-62.457c0-34.499,27.965-62.461,62.462-62.461
			c17.245,0,32.862,6.993,44.165,18.294l6.929-6.93c-6.636-6.631-14.365-11.841-22.966-15.48C91.47,1.991,82.004,0.084,72.258,0.084
			c-9.75,0-19.213,1.907-28.13,5.681c-8.607,3.639-16.33,8.849-22.966,15.48C14.53,27.879,9.321,35.607,5.683,44.212
			C1.912,53.128,0,62.591,0,72.342c0,9.747,1.912,19.209,5.683,28.125c3.638,8.605,8.848,16.331,15.479,22.97
			c6.636,6.629,14.359,11.838,22.966,15.477c8.917,3.773,18.379,5.685,28.13,5.685c9.746,0,19.212-1.911,28.128-5.685
			c8.601-3.639,16.33-8.848,22.966-15.477l-6.929-6.934C105.121,127.806,89.503,134.799,72.258,134.799z"/>
		<rect x="71.811" y="13.22" width="0.892" height="6.234"/>
		<rect x="99.816" y="20.724" transform="matrix(0.8666 0.499 -0.499 0.8666 25.274 -46.8525)" width="0.891" height="6.236"/>
		
			<rect x="99.801" y="117.73" transform="matrix(-0.8676 0.4972 -0.4972 -0.8676 247.3052 175.8559)" width="0.886" height="6.235"/>
		<rect x="71.791" y="125.225" width="0.892" height="6.233"/>
		<rect x="43.792" y="117.709" transform="matrix(-0.8646 -0.5024 0.5024 -0.8646 21.7812 247.52)" width="0.888" height="6.233"/>
		<rect x="23.3" y="97.199" transform="matrix(-0.4992 -0.8665 0.8665 -0.4992 -51.328 170.9641)" width="0.889" height="6.234"/>
		<rect x="13.138" y="71.861" width="6.236" height="0.892"/>
		<rect x="23.332" y="41.192" transform="matrix(0.501 -0.8655 0.8655 0.501 -26.4823 42.6899)" width="0.891" height="6.233"/>
		<rect x="43.845" y="20.702" transform="matrix(0.8671 -0.4981 0.4981 0.8671 -5.9797 25.2254)" width="0.889" height="6.236"/>
		<path d="M72.258,134.799c-34.497,0-62.462-27.963-62.462-62.457c0-34.499,27.965-62.461,62.462-62.461
			c17.245,0,32.862,6.993,44.165,18.294l6.929-6.93c-6.636-6.631-14.365-11.841-22.966-15.48C91.47,1.991,82.004,0.084,72.258,0.084
			c-9.75,0-19.213,1.907-28.13,5.681c-8.607,3.639-16.33,8.849-22.966,15.48C14.53,27.879,9.321,35.607,5.683,44.212
			C1.912,53.128,0,62.591,0,72.342c0,9.747,1.912,19.209,5.683,28.125c3.638,8.605,8.848,16.331,15.479,22.97
			c6.636,6.629,14.359,11.838,22.966,15.477c8.917,3.773,18.379,5.685,28.13,5.685c9.746,0,19.212-1.911,28.128-5.685
			c8.601-3.639,16.33-8.848,22.966-15.477l-6.929-6.934C105.121,127.806,89.503,134.799,72.258,134.799z"/>
		<rect x="13.172" y="71.864" width="6.234" height="0.892"/>
		<rect x="23.347" y="41.189" transform="matrix(0.5012 -0.8653 0.8653 0.5012 -26.472 42.687)" width="0.89" height="6.234"/>
		<rect x="120.352" y="41.206" transform="matrix(0.4998 0.8661 -0.8661 0.4998 98.8154 -82.4584)" width="0.893" height="6.234"/>
		<rect x="125.173" y="71.884" width="6.233" height="0.894"/>
		<rect x="120.331" y="97.213" transform="matrix(-0.5012 0.8653 -0.8653 -0.5012 268.1284 46.1047)" width="0.89" height="6.233"/>
		
			<rect x="99.823" y="117.704" transform="matrix(-0.8655 0.5009 -0.5009 -0.8655 247.5658 175.1752)" width="0.889" height="6.235"/>
		<rect x="71.814" y="125.194" width="0.89" height="6.231"/>
		
			<rect x="43.813" y="117.674" transform="matrix(-0.8674 -0.4977 0.4977 -0.8674 22.5296 247.5884)" width="0.889" height="6.236"/>
		
			<rect x="23.326" y="97.159" transform="matrix(-0.4982 -0.8671 0.8671 -0.4982 -51.3319 170.8453)" width="0.891" height="6.234"/>
		<rect x="13.172" y="71.864" width="6.234" height="0.892"/>
		<rect x="23.347" y="41.189" transform="matrix(0.5012 -0.8653 0.8653 0.5012 -26.472 42.687)" width="0.89" height="6.234"/>
		<rect x="120.352" y="41.206" transform="matrix(0.4998 0.8661 -0.8661 0.4998 98.8154 -82.4584)" width="0.893" height="6.234"/>
		<rect x="125.173" y="71.884" width="6.233" height="0.894"/>
		<path d="M72.236,0C32.303,0-0.069,32.373-0.069,72.308c0,39.937,32.372,72.309,72.305,72.309
			c39.937,0,72.307-32.372,72.307-72.309C144.542,32.38,112.172,0,72.236,0z M72.236,134.592c-34.398,0-62.286-27.886-62.286-62.284
			c0-34.396,27.888-62.284,62.286-62.284s62.281,27.888,62.281,62.284C134.517,106.706,106.634,134.592,72.236,134.592z"/>
		<rect x="120.331" y="97.213" transform="matrix(-0.5012 0.8653 -0.8653 -0.5012 268.1284 46.1047)" width="0.89" height="6.233"/>
		
			<rect x="99.823" y="117.704" transform="matrix(-0.8655 0.5009 -0.5009 -0.8655 247.5658 175.1752)" width="0.889" height="6.235"/>
		<rect x="71.814" y="125.194" width="0.89" height="6.231"/>
		
			<rect x="43.813" y="117.674" transform="matrix(-0.8674 -0.4977 0.4977 -0.8674 22.5296 247.5884)" width="0.889" height="6.236"/>
		
			<rect x="23.326" y="97.159" transform="matrix(-0.4982 -0.8671 0.8671 -0.4982 -51.3319 170.8453)" width="0.891" height="6.234"/>
	</g>
</g>
</svg>
