<?xml version="1.0" encoding="utf-8"?>
<!-- Generator: Adobe Illustrator 22.0.0, SVG Export Plug-In . SVG Version: 6.00 Build 0)  -->
<svg version="1.1" id="Layer_1" xmlns="http://www.w3.org/2000/svg" xmlns:xlink="http://www.w3.org/1999/xlink" x="0px" y="0px"
	 viewBox="0 0 144.5 144.6" style="enable-background:new 0 0 144.5 144.6;" xml:space="preserve">
<style type="text/css">
	.st0{display:none;}
	.st1{display:inline;fill:#FEE48D;}
	.st2{display:inline;fill:none;stroke:#000000;stroke-miterlimit:10;}
	.st3{display:inline;fill:#C9202F;}
	.st4{display:inline;}
	.st5{fill:#323D38;}
	.st6{fill:#FFFFFF;}
	.st7{fill:#ABABAB;}
	.st8{fill:#BC2726;}
	.st9{fill:none;stroke:#000000;stroke-width:5;stroke-linecap:square;stroke-miterlimit:10;}
	.st10{fill:#42B649;}
	.st11{fill:#C9202F;}
	.st12{fill:none;stroke:#C9202F;stroke-width:2;stroke-miterlimit:10;}
	.st13{fill:#999999;stroke:#999999;stroke-miterlimit:10;}
</style>
<g id="Layer_4" class="st0">
</g>
<g id="Layer_2_1_" class="st0">
	<rect x="54.1" y="8" class="st1" width="36.4" height="57.9"/>
	<line class="st2" x1="56.2" y1="34.1" x2="88.1" y2="34.1"/>
	<line class="st2" x1="56.2" y1="23.7" x2="88.1" y2="23.7"/>
	<path class="st3" d="M64.1-3.2c0,0,6.3-3.8,7.7-4.6c-0.3,1-3.7,5-4.4,5.4c-0.7,0.4-0.7,0.9-1,1c-0.4,0.1-2,1.8-4.4,4.7
		c1.7,4,6,0.9,6,0.9s7.5-7,9.1-8.4C78-4.4,81-5.6,82.2-6.3c-0.3,0.2-3.2,2.2-2.8,3.5c0.4,1.4-1.3,7.1-1.4,8
		c-0.1,0.8,0.3,0.9,0.4,2.9c0,0.2,0,0.4,0,0.7c0,0.1,0,0.2,0,0.4c0,3,1.6,3.3,2.9,2.5c0.6-0.4,1.1-1.6,1.4-2.9
		c0.1-0.2,0.1-0.4,0.1-0.7c0.2-1.2,0.3-2.3,0.3-3.1c0.7-0.6,1.6-3.1,2.2-5.4c1.2-0.1,4.3-3.2,4.8-3.9c0.4,0.1,1.5-0.6,1.6-0.8
		c0,0,1.7,0.2,2.4-0.6c-0.1,0.6,1.1,2.2,1.1,2.2S95-3.1,95.5-2c-0.5,2.5,0.7,4.3,0.7,4.3s-0.1,0.3-4,3.9c-1.6,0.6-2.8,1.3-3.8,1.9
		h2.2V14c1.3-0.5,2.8-1,3.9-1.3c2.1-1.9,7-4.3,8.5-5s2.2-1.2,3.1-2.4c0.8-0.1,1.8-0.6,5-3.5v4h44.3v-22.5h-44.3v1
		c-6.5,2.9-15.6-2.8-22.9-2.7c-8.8,4.3-21.1,3.9-24.8,4.2c-1.6,2.8,2.1,3.6,3.4,3.7c0,0-4.6,3-7.5,5C58.5-1.5,64.1-3.2,64.1-3.2z"/>
	<line class="st2" x1="69.4" y1="18.5" x2="88.1" y2="18.5"/>
	<line class="st2" x1="56.2" y1="18.5" x2="65.3" y2="18.5"/>
	<line class="st2" x1="69.4" y1="28.9" x2="88.1" y2="28.9"/>
	<line class="st2" x1="56.2" y1="28.9" x2="65.3" y2="28.9"/>
	<line class="st2" x1="69.4" y1="39.3" x2="88.1" y2="39.3"/>
	<line class="st2" x1="56.2" y1="39.3" x2="65.3" y2="39.3"/>
	<line class="st2" x1="56.2" y1="13.3" x2="65.3" y2="13.3"/>
</g>
<g id="Layer_3" class="st0">
</g>
<g id="Layer_1_1_" class="st0">
	<g class="st4">
		<path class="st5" d="M112.6,157.5c0,5.5-4.5,10-10,10H42.7c-5.5,0-10-4.5-10-10V53.8c0-5.5,4.5-10,10-10h59.9c5.5,0,10,4.5,10,10
			C112.6,53.8,112.6,157.5,112.6,157.5z"/>
		<g>
			<circle class="st6" cx="72.4" cy="83.4" r="26.6"/>
			<polygon class="st7" points="73.4,82.5 73.4,82.5 70.7,82.5 70.6,82.5 60.4,82.5 60.4,85.2 70.6,85.2 70.6,101.9 70.7,101.9 
				73.4,101.9 73.4,101.9 			"/>
			<polygon class="st8" points="73.8,82.1 73.8,82.1 71,82.1 71,82.1 60.8,82.1 60.8,84.8 71,84.8 71,101.5 71,101.5 73.8,101.5 
				73.8,101.5 			"/>
			<rect x="72.2" y="58.2" width="0.4" height="2.7"/>
			<rect x="83" y="62.5" transform="matrix(0.4988 -0.8667 0.8667 0.4988 -12.0958 104.5436)" width="2.7" height="0.4"/>
			<rect x="84.2" y="102.8" transform="matrix(0.8671 -0.4981 0.4981 0.8671 -40.6745 55.8542)" width="0.4" height="2.7"/>
			<rect x="72.2" y="106" width="0.4" height="2.7"/>
			<rect x="59.1" y="104" transform="matrix(0.5008 -0.8655 0.8655 0.5008 -59.9863 104.2914)" width="2.7" height="0.4"/>
			<rect x="50.3" y="95.2" transform="matrix(0.8667 -0.4989 0.4989 0.8667 -40.6956 38.4998)" width="2.7" height="0.4"/>
			<rect x="47.1" y="83.2" width="2.7" height="0.4"/>
			<rect x="51.5" y="70.1" transform="matrix(0.5018 -0.865 0.865 0.5018 -36.0683 80.3181)" width="0.4" height="2.7"/>
			<rect x="60.3" y="61.4" transform="matrix(0.8675 -0.4974 0.4974 0.8675 -23.188 38.3765)" width="0.4" height="2.7"/>
			<path d="M72.4,110.1c-14.7,0-26.7-11.9-26.7-26.7c0-14.7,11.9-26.7,26.7-26.7c7.4,0,14,3,18.9,7.8l3-3c-2.8-2.8-6.1-5.1-9.8-6.6
				c-3.8-1.6-7.8-2.4-12-2.4c-4.2,0-8.2,0.8-12,2.4c-3.7,1.6-7,3.8-9.8,6.6c-2.8,2.8-5.1,6.1-6.6,9.8c-1.6,3.8-2.4,7.8-2.4,12
				c0,4.2,0.8,8.2,2.4,12c1.6,3.7,3.8,7,6.6,9.8c2.8,2.8,6.1,5.1,9.8,6.6c3.8,1.6,7.8,2.4,12,2.4c4.2,0,8.2-0.8,12-2.4
				c3.7-1.6,7-3.8,9.8-6.6l-3-3C86.4,107.1,79.8,110.1,72.4,110.1z"/>
			<rect x="72.2" y="58.2" width="0.4" height="2.7"/>
			<rect x="83" y="62.5" transform="matrix(0.4988 -0.8667 0.8667 0.4988 -12.0958 104.5436)" width="2.7" height="0.4"/>
			<rect x="84.2" y="102.8" transform="matrix(0.8671 -0.4981 0.4981 0.8671 -40.6745 55.8542)" width="0.4" height="2.7"/>
			<rect x="72.2" y="106" width="0.4" height="2.7"/>
			<rect x="59.1" y="104" transform="matrix(0.5008 -0.8655 0.8655 0.5008 -59.9863 104.2914)" width="2.7" height="0.4"/>
			<rect x="50.3" y="95.2" transform="matrix(0.8667 -0.4989 0.4989 0.8667 -40.6956 38.4998)" width="2.7" height="0.4"/>
			<rect x="47.1" y="83.2" width="2.7" height="0.4"/>
			<rect x="51.5" y="70.1" transform="matrix(0.5018 -0.865 0.865 0.5018 -36.0683 80.3181)" width="0.4" height="2.7"/>
			<rect x="60.3" y="61.4" transform="matrix(0.8675 -0.4974 0.4974 0.8675 -23.188 38.3765)" width="0.4" height="2.7"/>
			<path d="M72.4,110.1c-14.7,0-26.7-11.9-26.7-26.7c0-14.7,11.9-26.7,26.7-26.7c7.4,0,14,3,18.9,7.8l3-3c-2.8-2.8-6.1-5.1-9.8-6.6
				c-3.8-1.6-7.8-2.4-12-2.4c-4.2,0-8.2,0.8-12,2.4c-3.7,1.6-7,3.8-9.8,6.6c-2.8,2.8-5.1,6.1-6.6,9.8c-1.6,3.8-2.4,7.8-2.4,12
				c0,4.2,0.8,8.2,2.4,12c1.6,3.7,3.8,7,6.6,9.8c2.8,2.8,6.1,5.1,9.8,6.6c3.8,1.6,7.8,2.4,12,2.4c4.2,0,8.2-0.8,12-2.4
				c3.7-1.6,7-3.8,9.8-6.6l-3-3C86.4,107.1,79.8,110.1,72.4,110.1z"/>
			<rect x="47.2" y="83.2" width="2.7" height="0.4"/>
			<rect x="51.5" y="70.1" transform="matrix(0.4999 -0.8661 0.8661 0.4999 -36.0454 80.5175)" width="0.4" height="2.7"/>
			<rect x="91.8" y="71.3" transform="matrix(0.8662 -0.4997 0.4997 0.8662 -23.257 56.0948)" width="2.7" height="0.4"/>
			<rect x="95" y="83.2" width="2.7" height="0.4"/>
			<rect x="92.9" y="94.1" transform="matrix(0.5008 -0.8655 0.8655 0.5008 -36.0835 128.2166)" width="0.4" height="2.7"/>
			<rect x="84.2" y="102.8" transform="matrix(0.8655 -0.5008 0.5008 0.8655 -40.8166 56.2533)" width="0.4" height="2.7"/>
			<rect x="72.2" y="106" width="0.4" height="2.7"/>
			<rect x="59.1" y="103.9" transform="matrix(0.4984 -0.867 0.867 0.4984 -59.9553 104.6304)" width="2.7" height="0.4"/>
			<rect x="50.4" y="95.2" transform="matrix(0.8673 -0.4978 0.4978 0.8673 -40.6153 38.3859)" width="2.7" height="0.4"/>
			<rect x="47.2" y="83.2" width="2.7" height="0.4"/>
			<rect x="51.5" y="70.1" transform="matrix(0.4999 -0.8661 0.8661 0.4999 -36.0454 80.5175)" width="0.4" height="2.7"/>
			<rect x="91.8" y="71.3" transform="matrix(0.8662 -0.4997 0.4997 0.8662 -23.257 56.0948)" width="2.7" height="0.4"/>
			<rect x="95" y="83.2" width="2.7" height="0.4"/>
			<path d="M72.4,52.5c-17.1,0-30.9,13.8-30.9,30.9c0,17.1,13.8,30.9,30.9,30.9c17.1,0,30.9-13.8,30.9-30.9
				C103.3,66.4,89.4,52.5,72.4,52.5z M72.4,110c-14.7,0-26.6-11.9-26.6-26.6c0-14.7,11.9-26.6,26.6-26.6S99,68.7,99,83.4
				C99,98.1,87.1,110,72.4,110z"/>
			<rect x="92.9" y="94.1" transform="matrix(0.5008 -0.8655 0.8655 0.5008 -36.0835 128.2166)" width="0.4" height="2.7"/>
			<rect x="84.2" y="102.8" transform="matrix(0.8655 -0.5008 0.5008 0.8655 -40.8166 56.2533)" width="0.4" height="2.7"/>
			<rect x="72.2" y="106" width="0.4" height="2.7"/>
			<rect x="59.1" y="103.9" transform="matrix(0.4984 -0.867 0.867 0.4984 -59.9553 104.6304)" width="2.7" height="0.4"/>
			<rect x="50.4" y="95.2" transform="matrix(0.8673 -0.4978 0.4978 0.8673 -40.6153 38.3859)" width="2.7" height="0.4"/>
		</g>
		<line class="st9" x1="46.4" y1="144.6" x2="98.8" y2="144.6"/>
		<line class="st9" x1="46.4" y1="154.3" x2="98.8" y2="154.3"/>
		<circle class="st10" cx="41.5" cy="52.5" r="5.6"/>
		<circle class="st11" cx="103.3" cy="52.5" r="5.6"/>
		<line class="st12" x1="103.2" y1="40.5" x2="103.2" y2="32.6"/>
		<line class="st12" x1="111.7" y1="44.1" x2="117.3" y2="38.4"/>
		<line class="st12" x1="115.2" y1="52.5" x2="123.1" y2="52.5"/>
	</g>
</g>
<g id="Layer_5">
	<g>
		<polygon class="st13" points="76.8,72.3 104.4,44.7 104.4,44.7 99.9,40.2 99.9,40.2 72.3,67.8 44.6,40.2 44.6,40.2 40.1,44.7 
			40.1,44.7 67.7,72.3 40.1,100 40.1,100 44.6,104.5 44.6,104.5 72.3,76.9 99.9,104.5 99.9,104.5 104.4,100 104.4,100 		"/>
		<rect x="71.8" y="13.2" class="st13" width="0.9" height="6.2"/>
		<rect x="97.1" y="23.4" transform="matrix(0.499 -0.8666 0.8666 0.499 29.5726 98.832)" class="st13" width="6.2" height="0.9"/>
		
			<rect x="99.8" y="117.7" transform="matrix(0.8676 -0.4972 0.4972 0.8676 -46.8183 65.8422)" class="st13" width="0.9" height="6.2"/>
		<rect x="71.8" y="125.2" class="st13" width="0.9" height="6.2"/>
		
			<rect x="41.1" y="120.4" transform="matrix(0.5024 -0.8646 0.8646 0.5024 -82.461 98.3721)" class="st13" width="6.2" height="0.9"/>
		
			<rect x="20.6" y="99.9" transform="matrix(0.8665 -0.4992 0.4992 0.8665 -46.9052 25.2448)" class="st13" width="6.2" height="0.9"/>
		<rect x="13.1" y="71.9" class="st13" width="6.2" height="0.9"/>
		
			<rect x="23.3" y="41.2" transform="matrix(0.501 -0.8655 0.8655 0.501 -26.4813 42.6912)" class="st13" width="0.9" height="6.2"/>
		
			<rect x="43.8" y="20.7" transform="matrix(0.8671 -0.4981 0.4981 0.8671 -5.9792 25.2257)" class="st13" width="0.9" height="6.2"/>
		<path class="st13" d="M72.3,134.8c-34.5,0-62.5-28-62.5-62.5c0-34.5,28-62.5,62.5-62.5c17.2,0,32.9,7,44.2,18.3l6.9-6.9
			c-6.6-6.6-14.4-11.8-23-15.5C91.5,2,82,0.1,72.3,0.1C62.5,0.1,53,2,44.1,5.8c-8.6,3.6-16.3,8.8-23,15.5
			c-6.6,6.6-11.8,14.4-15.5,23C1.9,53.1,0,62.6,0,72.3c0,9.7,1.9,19.2,5.7,28.1c3.6,8.6,8.8,16.3,15.5,23c6.6,6.6,14.4,11.8,23,15.5
			c8.9,3.8,18.4,5.7,28.1,5.7c9.7,0,19.2-1.9,28.1-5.7c8.6-3.6,16.3-8.8,23-15.5l-6.9-6.9C105.1,127.8,89.5,134.8,72.3,134.8z"/>
		<rect x="71.8" y="13.2" class="st13" width="0.9" height="6.2"/>
		<rect x="97.1" y="23.4" transform="matrix(0.499 -0.8666 0.8666 0.499 29.5726 98.832)" class="st13" width="6.2" height="0.9"/>
		
			<rect x="99.8" y="117.7" transform="matrix(0.8676 -0.4972 0.4972 0.8676 -46.8183 65.8422)" class="st13" width="0.9" height="6.2"/>
		<rect x="71.8" y="125.2" class="st13" width="0.9" height="6.2"/>
		
			<rect x="41.1" y="120.4" transform="matrix(0.5024 -0.8646 0.8646 0.5024 -82.461 98.3721)" class="st13" width="6.2" height="0.9"/>
		
			<rect x="20.6" y="99.9" transform="matrix(0.8665 -0.4992 0.4992 0.8665 -46.9052 25.2448)" class="st13" width="6.2" height="0.9"/>
		<rect x="13.1" y="71.9" class="st13" width="6.2" height="0.9"/>
		
			<rect x="23.3" y="41.2" transform="matrix(0.501 -0.8655 0.8655 0.501 -26.4813 42.6912)" class="st13" width="0.9" height="6.2"/>
		
			<rect x="43.8" y="20.7" transform="matrix(0.8671 -0.4981 0.4981 0.8671 -5.9792 25.2257)" class="st13" width="0.9" height="6.2"/>
		<path class="st13" d="M72.3,134.8c-34.5,0-62.5-28-62.5-62.5c0-34.5,28-62.5,62.5-62.5c17.2,0,32.9,7,44.2,18.3l6.9-6.9
			c-6.6-6.6-14.4-11.8-23-15.5C91.5,2,82,0.1,72.3,0.1C62.5,0.1,53,2,44.1,5.8c-8.6,3.6-16.3,8.8-23,15.5
			c-6.6,6.6-11.8,14.4-15.5,23C1.9,53.1,0,62.6,0,72.3c0,9.7,1.9,19.2,5.7,28.1c3.6,8.6,8.8,16.3,15.5,23c6.6,6.6,14.4,11.8,23,15.5
			c8.9,3.8,18.4,5.7,28.1,5.7c9.7,0,19.2-1.9,28.1-5.7c8.6-3.6,16.3-8.8,23-15.5l-6.9-6.9C105.1,127.8,89.5,134.8,72.3,134.8z"/>
		<rect x="13.2" y="71.9" class="st13" width="6.2" height="0.9"/>
		
			<rect x="23.3" y="41.2" transform="matrix(0.5012 -0.8653 0.8653 0.5012 -26.4726 42.6857)" class="st13" width="0.9" height="6.2"/>
		
			<rect x="117.7" y="43.9" transform="matrix(0.8661 -0.4998 0.4998 0.8661 -5.9791 66.3119)" class="st13" width="6.2" height="0.9"/>
		<rect x="125.2" y="71.9" class="st13" width="6.2" height="0.9"/>
		
			<rect x="120.3" y="97.2" transform="matrix(0.5012 -0.8653 0.8653 0.5012 -26.5718 154.5558)" class="st13" width="0.9" height="6.2"/>
		
			<rect x="99.8" y="117.7" transform="matrix(0.8655 -0.5009 0.5009 0.8655 -47.0379 66.4738)" class="st13" width="0.9" height="6.2"/>
		<rect x="71.8" y="125.2" class="st13" width="0.9" height="6.2"/>
		
			<rect x="41.1" y="120.3" transform="matrix(0.4977 -0.8674 0.8674 0.4977 -82.5334 99.0621)" class="st13" width="6.2" height="0.9"/>
		
			<rect x="20.7" y="99.8" transform="matrix(0.8671 -0.4982 0.4982 0.8671 -46.7953 25.1735)" class="st13" width="6.2" height="0.9"/>
		<rect x="13.2" y="71.9" class="st13" width="6.2" height="0.9"/>
		
			<rect x="23.3" y="41.2" transform="matrix(0.5012 -0.8653 0.8653 0.5012 -26.4726 42.6857)" class="st13" width="0.9" height="6.2"/>
		
			<rect x="117.7" y="43.9" transform="matrix(0.8661 -0.4998 0.4998 0.8661 -5.9791 66.3119)" class="st13" width="6.2" height="0.9"/>
		<rect x="125.2" y="71.9" class="st13" width="6.2" height="0.9"/>
		<path class="st13" d="M72.2,0C32.3,0-0.1,32.4-0.1,72.3c0,39.9,32.4,72.3,72.3,72.3c39.9,0,72.3-32.4,72.3-72.3
			C144.5,32.4,112.2,0,72.2,0z M72.2,134.6c-34.4,0-62.3-27.9-62.3-62.3C10,37.9,37.8,10,72.2,10s62.3,27.9,62.3,62.3
			C134.5,106.7,106.6,134.6,72.2,134.6z"/>
		
			<rect x="120.3" y="97.2" transform="matrix(0.5012 -0.8653 0.8653 0.5012 -26.5718 154.5558)" class="st13" width="0.9" height="6.2"/>
		
			<rect x="99.8" y="117.7" transform="matrix(0.8655 -0.5009 0.5009 0.8655 -47.0379 66.4738)" class="st13" width="0.9" height="6.2"/>
		<rect x="71.8" y="125.2" class="st13" width="0.9" height="6.2"/>
		
			<rect x="41.1" y="120.3" transform="matrix(0.4977 -0.8674 0.8674 0.4977 -82.5334 99.0621)" class="st13" width="6.2" height="0.9"/>
		
			<rect x="20.7" y="99.8" transform="matrix(0.8671 -0.4982 0.4982 0.8671 -46.7953 25.1735)" class="st13" width="6.2" height="0.9"/>
	</g>
</g>
</svg>
