<?xml version="1.0" encoding="utf-8"?>
<!-- Generator: Adobe Illustrator 16.0.0, SVG Export Plug-In . SVG Version: 6.00 Build 0)  -->
<!DOCTYPE svg PUBLIC "-//W3C//DTD SVG 1.1//EN" "http://www.w3.org/Graphics/SVG/1.1/DTD/svg11.dtd">
<svg version="1.1" xmlns="http://www.w3.org/2000/svg" xmlns:xlink="http://www.w3.org/1999/xlink" x="0px" y="0px"
	 width="145.037px" height="123.038px" viewBox="0 0 145.037 123.038" enable-background="new 0 0 145.037 123.038"
	 xml:space="preserve">
<g id="Layer_1">
	<g>
		<path fill="#2D328B" d="M11.712,123.038C5.245,123.038,0,117.794,0,111.326V41.059c0-6.467,5.245-11.711,11.712-11.711h121.614
			c6.467,0,11.711,5.244,11.711,11.711v70.267c0,6.469-5.244,11.712-11.711,11.712H11.712z"/>
	</g>
	<path d="M105.088,9.435C101.102,3.086,90.449,0,72.519,0S43.936,3.086,39.951,9.435c-2.212,3.523-1.798,7.258-0.771,9.386
		c0.781,1.619,2.399,2.563,4.083,2.563c0.66,0,1.331-0.145,1.965-0.451c2.253-1.088,3.199-3.796,2.111-6.049
		c0-0.001,0.134-0.391,0.284-0.631c0.544-0.866,4.302-5.191,24.895-5.191c20.592,0,24.351,4.325,24.895,5.191
		c0.15,0.24,0.285,0.63,0.284,0.631c-1.087,2.253-0.143,4.961,2.111,6.049c0.635,0.306,1.306,0.451,1.966,0.451
		c1.684,0,3.301-0.943,4.082-2.563C106.885,16.693,107.299,12.958,105.088,9.435z"/>
</g>
<g id="Layer_2" display="none">
	<g display="inline">
		<path d="M84.162,9.208c-0.51,0.04-1.03,0.061-1.55,0.061c-0.82,0-1.62-0.04-2.42-0.141c-0.11-8.24-1.89-9.779-2.26-10
			c-0.09-0.07-0.261-0.13-0.261-0.13c-0.989,0.47-2.17,0.06-2.659-0.92c-0.12-0.28-0.19-0.57-0.19-0.86c0-0.73,0.41-1.44,1.12-1.78
			c0.939-0.45,2.57-0.63,4.1,0.33C82.732-2.552,84.082,1.848,84.162,9.208z"/>
		<path fill="#C9202F" d="M102.216,24.204c0-6.996-3.545-13.164-8.937-16.808c-3.235-2.186-7.135,0.892-11.333,0.892
			c-4.021,0-7.77-3.183-10.922-1.162c-5.622,3.603-9.348,9.905-9.348,17.078c0,9.708,6.825,17.821,15.938,19.806
			c1.396,0.304,2.845-2.284,4.331-2.284c1.546,0,3.052,2.574,4.499,2.246C95.475,41.925,102.216,33.852,102.216,24.204z"/>
	</g>
	<g display="inline">
		<path fill="#F9ED32" d="M101.11,60.87c-7.19,5.88-16.37,9.42-26.38,9.42c-23.06,0-41.75-18.7-41.75-41.75
			c0-10.02,3.55-19.21,9.45-26.41l5.94,2.17c-0.82,3.24-1.26,6.62-1.26,10.11c0,23.06,18.69,41.75,41.75,41.75
			c3.34,0,6.59-0.4,9.699-1.16L101.11,60.87z"/>
		<path fill="#3C2415" d="M49.25,1.24c-0.33,1-0.63,2.02-0.88,3.06l-5.94-2.17c0.24-0.3,0.49-0.6,0.74-0.89H49.25z"/>
		<path fill="#3C2415" d="M102.23,53.95v5.979c-0.37,0.32-0.74,0.641-1.12,0.94L98.56,55C99.81,54.709,101.03,54.36,102.23,53.95z"
			/>
	</g>
</g>
</svg>
