<?xml version="1.0" encoding="utf-8"?>
<!-- Generator: Adobe Illustrator 22.0.0, SVG Export Plug-In . SVG Version: 6.00 Build 0)  -->
<svg version="1.1" id="Layer_1" xmlns="http://www.w3.org/2000/svg" xmlns:xlink="http://www.w3.org/1999/xlink" x="0px" y="0px"
	 viewBox="0 0 500 500" style="enable-background:new 0 0 500 500;" xml:space="preserve">
<style type="text/css">
	.st0{display:none;}
	.st1{display:inline;opacity:0.4;}
	.st2{clip-path:url(#SVGID_2_);fill:#FFFFFF;}
	.st3{clip-path:url(#SVGID_4_);}
	.st4{display:inline;opacity:0.4;fill:#FFFFFF;enable-background:new    ;}
	.st5{display:inline;opacity:0.4;fill:#29ABE2;enable-background:new    ;}
	.st6{display:inline;opacity:0.4;fill:none;stroke:#D83406;stroke-width:20;stroke-miterlimit:10;enable-background:new    ;}
	.st7{display:inline;opacity:0.4;fill:none;stroke:#D83406;stroke-width:19;stroke-miterlimit:10;enable-background:new    ;}
	.st8{display:inline;opacity:0.4;fill:none;stroke:#000000;stroke-width:7;stroke-miterlimit:10;enable-background:new    ;}
	.st9{display:inline;opacity:0.4;fill:#FF0000;enable-background:new    ;}
	.st10{font-family:'PTSans-Regular';}
	.st11{font-size:72px;}
	.st12{display:inline;opacity:0.4;fill:none;stroke:#D83406;stroke-miterlimit:10;enable-background:new    ;}
	.st13{display:inline;opacity:0.4;enable-background:new    ;}
	.st14{font-family:'Menlo-Regular';}
	.st15{font-size:170px;}
	.st16{clip-path:url(#SVGID_6_);fill:none;stroke:#000000;stroke-miterlimit:10;}
	.st17{clip-path:url(#SVGID_8_);fill:none;stroke:#000000;stroke-miterlimit:10;}
	.st18{clip-path:url(#SVGID_10_);fill:none;stroke:#000000;stroke-miterlimit:10;}
	.st19{clip-path:url(#SVGID_12_);fill:none;stroke:#000000;stroke-miterlimit:10;}
	.st20{clip-path:url(#SVGID_14_);fill:none;stroke:#000000;stroke-miterlimit:10;}
	.st21{display:inline;opacity:0.4;fill:none;stroke:#000000;stroke-miterlimit:10;enable-background:new    ;}
	.st22{display:inline;fill:#AAAAAA;}
	.st23{display:inline;}
	.st24{fill:#AAAAAA;}
	.st25{display:inline;fill:#BC2424;}
	.st26{fill:#BC2424;}
	.st27{fill:#999999;}
	.st28{fill:#FFFFFF;}
</style>
<g id="Layer_1_1_" class="st0">
	<g class="st1">
		<g>
			<defs>
				<rect id="SVGID_1_" x="-433" y="-106.1" width="1366" height="768"/>
			</defs>
			<clipPath id="SVGID_2_">
				<use xlink:href="#SVGID_1_"  style="overflow:visible;"/>
			</clipPath>
			<path class="st2" d="M-8.4,412.6c-34.9,0-68.6-10.5-97.5-30.3c-29.5-20.3-51.7-48.8-64-82.6c-15.8-43.1-13.9-89.9,5.5-131.5
				c19.3-41.7,53.7-73.3,96.9-89.1c19.1-7,39-10.5,59.1-10.5c34.9,0,68.6,10.5,97.5,30.3c29.5,20.3,51.7,48.8,64,82.6
				c32.6,89.1-13.3,188-102.4,220.7C31.7,409,11.8,412.6-8.4,412.6"/>
		</g>
		<g>
			<defs>
				<rect id="SVGID_3_" x="-433" y="-106.1" width="1366" height="768"/>
			</defs>
			<clipPath id="SVGID_4_">
				<use xlink:href="#SVGID_3_"  style="overflow:visible;"/>
			</clipPath>
			<path class="st3" d="M-8.4,81C24,81,55.2,90.7,82,109.1c27.4,18.8,47.9,45.3,59.4,76.6c14.7,40,12.8,83.3-5.1,122
				c-17.9,38.6-49.8,68-89.8,82.7c-17.7,6.5-36.2,9.8-54.8,9.8c-32.4,0-63.6-9.7-90.4-28.1c-27.4-18.8-47.9-45.3-59.4-76.6
				c-14.7-40-12.8-83.3,5.1-122c17.9-38.6,49.8-68,89.8-82.7C-45.5,84.2-27.1,81-8.4,81L-8.4,81 M-8.4,56
				c-21.1,0-42.5,3.6-63.4,11.3c-95.7,35-144.8,141-109.8,236.7c27.4,74.8,98,121.1,173.3,121.1c21.1,0,42.5-3.6,63.4-11.3
				c95.7-35,144.8-141,109.8-236.7C137.5,102.3,66.8,55.9-8.4,56"/>
		</g>
	</g>
	<rect x="29.5" y="172.4" class="st4" width="351" height="146"/>
	<path class="st4" d="M368,305.9H42v-121h326V305.9z M393,159.9H17v171h376V159.9z"/>
	<rect x="-8" y="232.9" class="st5" width="0" height="144"/>
	<rect x="-8" y="232.9" class="st5" width="0" height="144"/>
	<line class="st6" x1="-7.5" y1="240.4" x2="-7.5" y2="378.4"/>
	<line class="st7" x1="-101" y1="242.4" x2="2.5" y2="242.4"/>
	<line class="st8" x1="-160.8" y1="240.4" x2="-113.2" y2="240.4"/>
	<line class="st8" x1="-86.8" y1="112.3" x2="-61.2" y2="152.5"/>
	<line class="st8" x1="-8" y1="86.6" x2="-8" y2="134.2"/>
	<line class="st8" x1="68.9" y1="111.8" x2="45.1" y2="153.1"/>
	<line class="st8" x1="-136.8" y1="160.1" x2="-97.2" y2="186.7"/>
	<line class="st8" x1="75.1" y1="186.5" x2="114.9" y2="160.3"/>
	<text transform="matrix(1 0 0 1 -3 283.3086)" class="st9 st10 st11"> IME</text>
	<rect x="23.7" y="232.9" class="st12" width="6" height="50.4"/>
	<polygon class="st12" points="82,283.3 88,283.3 88,232.9 83.3,232.9 68.3,258.5 66,264.3 65.9,264.3 63.5,258.7 47.8,232.9 
		43.3,232.9 43.3,283.3 48.9,283.3 48.9,249.4 47.9,241.9 48.3,241.9 50.9,248.7 64.8,271.6 66.6,271.6 79.7,248.8 82.4,241.9 
		82.8,241.9 82,249.5 	"/>
	<polygon class="st12" points="100.2,283.3 128,283.3 128,278 106.2,278 106.2,260.1 125.9,260.1 125.9,254.7 106.2,254.7 
		106.2,238.2 127.7,238.2 127.7,232.9 100.2,232.9 	"/>
	<text transform="matrix(1 0 0 1 130 312.1074)" class="st13 st14 st15">RUNCH</text>
	<g class="st1">
		<g>
			<defs>
				<rect id="SVGID_5_" x="-433" y="-106.1" width="1366" height="768"/>
			</defs>
			<clipPath id="SVGID_6_">
				<use xlink:href="#SVGID_5_"  style="overflow:visible;"/>
			</clipPath>
			<path class="st16" d="M176.4,202c8,0,14,1.9,18.2,5.7c4.2,3.8,6.3,9.3,6.3,16.4c0,7.4-2,12.9-5.9,16.5c-3.9,3.6-9.9,5.4-17.9,5.4
				h-18.3v-44H176.4z M211.9,244.1c4.5-5.2,6.7-11.9,6.7-20c0-11.6-3.6-20.5-10.9-26.6c-7.2-6.1-17.7-9.2-31.3-9.2h-34.5v123.9h16.9
				v-52.4h16c5.5,0,9.9,1.3,13.3,3.9c3.4,2.6,7.2,8.3,11.5,17.2l14.8,31.3h18l-16.9-33.9c-4.5-9.2-8.3-15.3-11.4-18.4
				c-3-3.1-6.7-5.2-11-6.3C201.2,252.4,207.4,249.3,211.9,244.1z"/>
		</g>
		<g>
			<defs>
				<rect id="SVGID_7_" x="-433" y="-106.1" width="1366" height="768"/>
			</defs>
			<clipPath id="SVGID_8_">
				<use xlink:href="#SVGID_7_"  style="overflow:visible;"/>
			</clipPath>
			<path class="st17" d="M247,291.5c1.6,5.5,4.3,9.9,8.1,13.3c3.7,3.3,7.9,5.7,12.6,7.3c4.7,1.6,10,2.4,15.8,2.4
				c5.9,0,11.2-0.8,15.9-2.4c4.7-1.6,8.9-4,12.5-7.3c3.9-3.5,6.6-7.9,8.2-13.2c1.6-5.3,2.4-14.3,2.4-27v-76.4h-16.8v84.2
				c0,6-0.2,10.2-0.5,12.8c-0.3,2.5-0.9,4.5-1.7,5.9c-1.8,3.3-4.4,5.7-7.7,7.4s-7.4,2.5-12.2,2.5c-4.8,0-8.8-0.8-12.2-2.5
				c-3.3-1.7-5.9-4.1-7.7-7.4c-0.8-1.4-1.4-3.4-1.7-5.9c-0.3-2.6-0.5-6.9-0.5-12.9v-84h-16.9v76.4C244.6,277.1,245.4,286,247,291.5z
				"/>
		</g>
		<g>
			<defs>
				<rect id="SVGID_9_" x="-433" y="-106.1" width="1366" height="768"/>
			</defs>
			<clipPath id="SVGID_10_">
				<use xlink:href="#SVGID_9_"  style="overflow:visible;"/>
			</clipPath>
			<polygon class="st18" points="336.3,312.1 354.1,312.1 354.1,210.4 402.6,312.1 425.5,312.1 425.5,188.6 407.7,188.6 
				407.7,290.3 359.2,188.6 336.3,188.6 			"/>
		</g>
		<g>
			<defs>
				<rect id="SVGID_11_" x="-433" y="-106.1" width="1366" height="768"/>
			</defs>
			<clipPath id="SVGID_12_">
				<use xlink:href="#SVGID_11_"  style="overflow:visible;"/>
			</clipPath>
			<path class="st19" d="M526.1,290.5c-4,3.4-8.4,5.9-13.1,7.7c-4.7,1.8-9.4,2.7-14.3,2.7c-10.9,0-19.1-4.2-24.5-12.6
				c-5.4-8.4-8.1-21.1-8.1-38c0-17,2.7-29.7,8.1-38.1c5.4-8.4,13.6-12.6,24.5-12.6c4.8,0,9.5,0.9,14.2,2.7c4.7,1.8,9.1,4.3,13.2,7.7
				v-17.2c-4.3-2.3-8.6-4-13.1-5.1c-4.5-1.1-9.2-1.7-14.3-1.7c-15.8,0-28.1,5.7-36.9,17c-8.8,11.3-13.2,27.1-13.2,47.4
				c0,20.4,4.4,36.2,13.2,47.4c8.8,11.2,21.1,16.9,37,16.9c5,0,9.8-0.6,14.3-1.7c4.5-1.1,8.9-2.8,13.1-5.1L526.1,290.5L526.1,290.5z
				"/>
		</g>
		<g>
			<defs>
				<rect id="SVGID_13_" x="-433" y="-106.1" width="1366" height="768"/>
			</defs>
			<clipPath id="SVGID_14_">
				<use xlink:href="#SVGID_13_"  style="overflow:visible;"/>
			</clipPath>
			<polygon class="st20" points="550.8,312.1 567.6,312.1 567.6,249.8 613.5,249.8 613.5,312.1 630.4,312.1 630.4,188.2 
				613.5,188.2 613.5,235.7 567.6,235.7 567.6,188.2 550.8,188.2 			"/>
		</g>
	</g>
	
		<rect x="134.5" y="329.4" transform="matrix(1 -7.999744e-03 7.999744e-03 1 -2.7067 3.0794)" class="st13" width="498.1" height="21"/>
	
		<rect x="134.5" y="329.4" transform="matrix(1 -7.999744e-03 7.999744e-03 1 -2.7067 3.0794)" class="st21" width="498.1" height="21"/>
</g>
<g id="Layer_2_1_" class="st0">
	<polygon class="st22" points="-74.7,261 -74.7,246.7 -74.8,246.7 -89.1,246.7 -89.1,246.7 -142.7,246.7 -142.7,261 -89.1,261 
		-89.1,348.9 -89.1,348.9 -74.8,348.9 -74.7,348.9 -74.7,278.5 -74.7,267 -74.8,267 -74.8,261 	"/>
	<g class="st23">
		<polygon class="st24" points="-60.1,257.8 -60.1,286.5 -54.2,286.5 -54.2,257.8 -54.2,253.1 -60.1,253.1 		"/>
		<rect x="-60.1" y="244.8" class="st24" width="5.9" height="5.9"/>
		<polygon class="st24" points="-42.5,257.8 -42.5,286.5 -36.7,286.5 -36.7,257.8 -36.7,253.1 -42.5,253.1 		"/>
		<rect x="-42.5" y="244.8" class="st24" width="40.9" height="5.9"/>
		<polygon class="st24" points="-25,257.8 -25,286.5 -19.1,286.5 -19.1,257.8 -19.1,253.1 -25,253.1 		"/>
		<polygon class="st24" points="-7.4,257.8 -7.4,286.5 -1.6,286.5 -1.6,257.8 -1.6,253.1 -7.4,253.1 		"/>
		<polygon class="st24" points="16,254.5 16,253.1 10.1,253.1 10.1,254.5 10.1,263.1 10.1,267.3 10.1,268.3 10.1,269.2 10.1,280.7 
			10.1,286.5 33.5,286.5 33.5,280.7 16,280.7 16,269.2 16,268.3 33.5,268.3 33.5,263.1 16,263.1 		"/>
		<rect x="10.1" y="244.8" class="st24" width="23.4" height="5.9"/>
	</g>
	<polygon class="st25" points="-71.5,257.8 -71.5,243.5 -71.6,243.5 -85.9,243.5 -85.9,243.5 -139.6,243.5 -139.6,257.8 
		-85.9,257.8 -85.9,345.7 -85.9,345.7 -71.6,345.7 -71.5,345.7 -71.5,275.3 -71.5,263.9 -71.6,263.9 -71.6,257.8 	"/>
	<g class="st23">
		<polygon class="st26" points="-58.7,256.5 -58.7,285.2 -52.9,285.2 -52.9,256.5 -52.9,251.8 -58.7,251.8 		"/>
		<rect x="-58.7" y="243.5" class="st26" width="5.9" height="5.9"/>
		<polygon class="st26" points="-41.2,256.5 -41.2,285.2 -35.4,285.2 -35.4,256.5 -35.4,251.8 -41.2,251.8 		"/>
		<rect x="-41.2" y="243.5" class="st26" width="40.9" height="5.9"/>
		<polygon class="st26" points="-23.7,256.5 -23.7,285.2 -17.8,285.2 -17.8,256.5 -17.8,251.8 -23.7,251.8 		"/>
		<polygon class="st26" points="-6.1,256.5 -6.1,285.2 -0.3,285.2 -0.3,256.5 -0.3,251.8 -6.1,251.8 		"/>
		<polygon class="st26" points="17.3,253.2 17.3,251.8 11.4,251.8 11.4,253.2 11.4,261.7 11.4,266 11.4,267 11.4,267.8 11.4,279.4 
			11.4,285.2 34.8,285.2 34.8,279.4 17.3,279.4 17.3,267.8 17.3,267 34.8,267 34.8,261.7 17.3,261.7 		"/>
		<rect x="11.4" y="243.5" class="st26" width="23.4" height="5.9"/>
	</g>
	<rect x="-79.7" y="117.9" class="st23" width="2" height="14"/>
	
		<rect x="-22.9" y="140.8" transform="matrix(0.4999 -0.8661 0.8661 0.4999 -130.7382 57.1736)" class="st23" width="14" height="2"/>
	<rect x="-16.9" y="352.6" transform="matrix(0.866 -0.5 0.5 0.866 -181.942 40.233)" class="st23" width="2" height="14"/>
	<rect x="-79.8" y="369.4" class="st23" width="2" height="14"/>
	
		<rect x="-148.7" y="358.6" transform="matrix(0.5001 -0.866 0.866 0.5001 -382.2019 57.0481)" class="st23" width="14" height="2"/>
	
		<rect x="-194.7" y="312.5" transform="matrix(0.8663 -0.4996 0.4996 0.8663 -181.7149 -51.8301)" class="st23" width="14" height="2"/>
	<rect x="-211.5" y="249.6" class="st23" width="14" height="2"/>
	
		<rect x="-188.6" y="180.7" transform="matrix(0.5009 -0.8655 0.8655 0.5009 -256.1387 -68.6835)" class="st23" width="2" height="14"/>
	
		<rect x="-142.5" y="134.7" transform="matrix(0.8666 -0.499 0.499 0.8666 -89.6119 -51.7208)" class="st23" width="2" height="14"/>
	<path class="st23" d="M126.4,262.5c-9.3,0-17.6,3.4-24.7,10.3c-6.9,6.9-10.4,15.2-10.4,24.9v77h-22v-132h22l-0.1,15.2
		c9.6-11.6,21.4-17.4,35.2-17.4L126.4,262.5L126.4,262.5z"/>
	<path class="st23" d="M246.3,358.5c-10.7,11.9-23.8,17.9-39.6,17.9c-15.2,0-27.9-5.7-38-17.1c-9.8-11.2-14.7-24.4-14.7-39.7v-77h22
		v77c0,9.7,3.4,18,10.3,24.9c7.1,6.9,15.4,10.3,24.8,10.3c9.7,0,18-3.4,24.8-10.3c6.9-6.9,10.3-15.2,10.3-24.9v-77h22v132h-22
		L246.3,358.5L246.3,358.5z"/>
	<path class="st23" d="M404.7,297.7c0-9.7-3.4-18-10.3-24.9c-6.9-6.9-15.1-10.3-24.8-10.3c-9.4,0-17.7,3.4-24.8,10.3
		c-6.9,6.9-10.3,15.2-10.3,24.9v77h-22v-132h22l-0.1,16.1c10.7-12.2,23.9-18.3,39.7-18.3c15,0,27.7,5.8,38,17.5
		c9.8,11.3,14.7,24.5,14.7,39.7v77h-22V297.7z"/>
	<path class="st23" d="M685.2,297.7c0-9.7-3.4-18-10.3-24.9c-6.9-6.9-15.1-10.3-24.8-10.3c-9.4,0-17.7,3.4-24.8,10.3
		c-6.9,6.9-10.3,15.2-10.3,24.9v77h-22V88.4h22l-0.1,170.3c10.7-12.2,23.9-18.3,39.7-18.3c15,0,27.7,5.8,38,17.5
		c9.8,11.3,14.7,24.5,14.7,39.7v77h-22L685.2,297.7L685.2,297.7z"/>
	<path class="st23" d="M-78.7,390.9c-77.5,0-140.2-62.8-140.2-140.2s62.8-140.2,140.2-140.2c38.7,0,73.8,15.7,99.2,41.1L36,136
		c-14.9-14.9-32.2-26.6-51.6-34.8c-20-8.5-41.3-12.8-63.2-12.8s-43.1,4.3-63.2,12.8c-19.3,8.2-36.7,19.9-51.6,34.8
		c-14.9,14.9-26.6,32.2-34.8,51.6c-8.5,20-12.8,41.3-12.8,63.2s4.3,43.1,12.8,63.2c8.2,19.3,19.9,36.7,34.8,51.6
		c14.9,14.9,32.2,26.6,51.6,34.8c20,8.5,41.3,12.8,63.2,12.8s43.1-4.3,63.2-12.8C3.7,392,21.1,380.3,36,365.4l-15.6-15.6
		C-5,375.2-40,390.9-78.7,390.9z"/>
	<path class="st23" d="M518.5,351.4c-24.8,0-44.9-20.1-44.9-44.9c0-24.8,20.1-44.9,44.9-44.9c12.4,0,23.6,5,31.8,13.2l17.7-17.6
		c-12.7-12.7-30.1-20.5-49.4-20.5c-38.5,0-69.9,31.3-69.9,69.9c0,38.5,31.3,69.9,69.9,69.9c19.3,0,36.8-7.9,49.4-20.5l-17.7-17.6
		C542.2,346.4,531,351.4,518.5,351.4z"/>
</g>
<g id="Layer_3">
	<g>
		<polygon class="st27" points="260.5,260.5 260.5,238.5 260.5,238.5 238.5,238.5 238.5,238.5 156.1,238.5 156.1,260.5 238.5,260.5 
			238.5,395.5 238.5,395.5 260.5,395.5 260.5,395.5 260.5,287.4 260.5,269.7 260.5,269.7 260.5,260.5 		"/>
		<rect x="247.9" y="45.6" class="st27" width="3.1" height="21.5"/>
		
			<rect x="335.3" y="80.7" transform="matrix(0.4999 -0.8661 0.8661 0.4999 101.861 340.862)" class="st27" width="21.5" height="3.1"/>
		
			<rect x="344.5" y="406.1" transform="matrix(0.866 -0.5001 0.5001 0.866 -162.0854 228.8906)" class="st27" width="3.1" height="21.5"/>
		<rect x="247.9" y="431.9" class="st27" width="3.1" height="21.5"/>
		
			<rect x="142.1" y="415.3" transform="matrix(0.5001 -0.866 0.866 0.5001 -284.5336 340.665)" class="st27" width="21.5" height="3.1"/>
		
			<rect x="71.4" y="344.5" transform="matrix(0.8663 -0.4996 0.4996 0.8663 -161.8732 87.3116)" class="st27" width="21.5" height="3.1"/>
		<rect x="45.6" y="247.9" class="st27" width="21.5" height="3.1"/>
		
			<rect x="80.7" y="142.1" transform="matrix(0.5009 -0.8655 0.8655 0.5009 -91.2344 147.468)" class="st27" width="3.1" height="21.5"/>
		
			<rect x="151.5" y="71.4" transform="matrix(0.8666 -0.499 0.499 0.8666 -20.5916 87.3113)" class="st27" width="3.1" height="21.5"/>
		<path class="st27" d="M249.5,465C130.5,465,34,368.5,34,249.5c0-119,96.5-215.4,215.4-215.4c59.5,0,113.4,24.1,152.3,63.1
			l23.9-23.9c-22.9-22.9-49.5-40.8-79.2-53.4c-30.8-13-63.4-19.6-97-19.6c-33.6,0-66.3,6.6-97,19.6c-29.7,12.6-56.3,30.5-79.2,53.4
			c-22.9,22.9-40.8,49.5-53.4,79.2c-13,30.8-19.6,63.4-19.6,97c0,33.6,6.6,66.3,19.6,97c12.6,29.7,30.5,56.3,53.4,79.2
			c22.9,22.9,49.5,40.8,79.2,53.4c30.8,13,63.4,19.6,97,19.6s66.3-6.6,97-19.6c29.7-12.5,56.3-30.5,79.2-53.4l-23.9-23.9
			C362.8,440.8,309,465,249.5,465z"/>
		<rect x="247.9" y="45.6" class="st27" width="3.1" height="21.5"/>
		
			<rect x="335.3" y="80.7" transform="matrix(0.4999 -0.8661 0.8661 0.4999 101.861 340.862)" class="st27" width="21.5" height="3.1"/>
		
			<rect x="344.5" y="406.1" transform="matrix(0.866 -0.5001 0.5001 0.866 -162.0854 228.8906)" class="st27" width="3.1" height="21.5"/>
		<rect x="247.9" y="431.9" class="st27" width="3.1" height="21.5"/>
		
			<rect x="142.1" y="415.3" transform="matrix(0.5001 -0.866 0.866 0.5001 -284.5336 340.665)" class="st27" width="21.5" height="3.1"/>
		
			<rect x="71.4" y="344.5" transform="matrix(0.8663 -0.4996 0.4996 0.8663 -161.8732 87.3116)" class="st27" width="21.5" height="3.1"/>
		<rect x="45.6" y="247.9" class="st27" width="21.5" height="3.1"/>
		
			<rect x="80.7" y="142.1" transform="matrix(0.5009 -0.8655 0.8655 0.5009 -91.2344 147.468)" class="st27" width="3.1" height="21.5"/>
		
			<rect x="151.5" y="71.4" transform="matrix(0.8666 -0.499 0.499 0.8666 -20.5916 87.3113)" class="st27" width="3.1" height="21.5"/>
		<path class="st27" d="M249.5,465C130.5,465,34,368.5,34,249.5c0-119,96.5-215.4,215.4-215.4c59.5,0,113.4,24.1,152.3,63.1
			l23.9-23.9c-22.9-22.9-49.5-40.8-79.2-53.4c-30.8-13-63.4-19.6-97-19.6c-33.6,0-66.3,6.6-97,19.6c-29.7,12.6-56.3,30.5-79.2,53.4
			c-22.9,22.9-40.8,49.5-53.4,79.2c-13,30.8-19.6,63.4-19.6,97c0,33.6,6.6,66.3,19.6,97c12.6,29.7,30.5,56.3,53.4,79.2
			c22.9,22.9,49.5,40.8,79.2,53.4c30.8,13,63.4,19.6,97,19.6s66.3-6.6,97-19.6c29.7-12.5,56.3-30.5,79.2-53.4l-23.9-23.9
			C362.8,440.8,309,465,249.5,465z"/>
		<rect x="45.7" y="247.9" class="st27" width="21.5" height="3.1"/>
		
			<rect x="80.8" y="142.1" transform="matrix(0.4999 -0.8661 0.8661 0.4999 -91.1853 147.704)" class="st27" width="3.1" height="21.5"/>
		
			<rect x="406.1" y="151.3" transform="matrix(0.866 -0.5001 0.5001 0.866 -20.5629 228.9906)" class="st27" width="21.5" height="3.1"/>
		<rect x="432" y="247.9" class="st27" width="21.5" height="3.1"/>
		
			<rect x="415.3" y="335.3" transform="matrix(0.4999 -0.8661 0.8661 0.4999 -91.2885 534.0967)" class="st27" width="3.1" height="21.5"/>
		
			<rect x="344.5" y="406" transform="matrix(0.8661 -0.4999 0.4999 0.8661 -161.9715 228.8092)" class="st27" width="3.1" height="21.5"/>
		<rect x="247.9" y="431.8" class="st27" width="3.1" height="21.5"/>
		
			<rect x="142.2" y="415.1" transform="matrix(0.5009 -0.8655 0.8655 0.5009 -284.2858 340.2979)" class="st27" width="21.5" height="3.1"/>
		
			<rect x="71.5" y="344.3" transform="matrix(0.8667 -0.4988 0.4988 0.8667 -161.5686 87.1165)" class="st27" width="21.5" height="3.1"/>
		<rect x="45.7" y="247.9" class="st27" width="21.5" height="3.1"/>
		
			<rect x="80.8" y="142.1" transform="matrix(0.4999 -0.8661 0.8661 0.4999 -91.1853 147.704)" class="st27" width="3.1" height="21.5"/>
		
			<rect x="406.1" y="151.3" transform="matrix(0.866 -0.5001 0.5001 0.866 -20.5629 228.9906)" class="st27" width="21.5" height="3.1"/>
		<rect x="432" y="247.9" class="st27" width="21.5" height="3.1"/>
		<path class="st27" d="M249.4,0C111.7,0,0,111.7,0,249.4c0,137.8,111.7,249.4,249.4,249.4c137.7,0,249.4-111.7,249.4-249.4
			C498.8,111.7,387.1,0,249.4,0z M249.4,464.2c-118.7,0-214.8-96.2-214.8-214.8c0-118.6,96.2-214.8,214.8-214.8
			c118.6,0,214.8,96.2,214.8,214.8C464.2,368.1,368.1,464.2,249.4,464.2z"/>
		
			<rect x="415.3" y="335.3" transform="matrix(0.4999 -0.8661 0.8661 0.4999 -91.2885 534.0967)" class="st27" width="3.1" height="21.5"/>
		
			<rect x="344.5" y="406" transform="matrix(0.8661 -0.4999 0.4999 0.8661 -161.9715 228.8092)" class="st27" width="3.1" height="21.5"/>
		<rect x="247.9" y="431.8" class="st27" width="3.1" height="21.5"/>
		
			<rect x="142.2" y="415.1" transform="matrix(0.5009 -0.8655 0.8655 0.5009 -284.2858 340.2979)" class="st27" width="21.5" height="3.1"/>
		
			<rect x="71.5" y="344.3" transform="matrix(0.8667 -0.4988 0.4988 0.8667 -161.5686 87.1165)" class="st27" width="21.5" height="3.1"/>
	</g>
	<g class="st0">
		<path class="st25" d="M520.7,214.7L520.7,214.7l-7.2-12.4l0,0l-61,35.1l-9.9,5.7l0,0l-2.1,1.2c-1.7-0.9-3.7-1.4-5.8-1.4
			c-7.2,0-13,5.8-13,13s5.8,13,13,13c6.9,0,12.6-5.4,13-12.3L520.7,214.7z"/>
		<rect x="416.3" y="334.3" class="st23" width="17.2" height="28.2"/>
		<rect x="396.5" y="334.3" class="st23" width="17.2" height="28.2"/>
		<rect x="376.8" y="334.3" class="st23" width="17.2" height="28.2"/>
		<path class="st23" d="M495.3,365.1H374.2v-33.4h121.1L495.3,365.1L495.3,365.1z M375.5,333v30.8H494V333H375.5z"/>
		<rect x="475.5" y="334.3" class="st23" width="17.2" height="28.2"/>
		<rect x="455.8" y="334.3" class="st23" width="17.2" height="28.2"/>
		<rect x="436.1" y="334.3" class="st23" width="17.2" height="28.2"/>
		<rect x="433.8" y="123.3" class="st23" width="2" height="14"/>
		
			<rect x="490.7" y="146.1" transform="matrix(0.4999 -0.8661 0.8661 0.4999 121.4714 504.6062)" class="st23" width="14" height="2"/>
		
			<rect x="319" y="316.9" transform="matrix(0.8665 -0.4992 0.4992 0.8665 -115.1504 205.1729)" class="st23" width="14" height="2"/>
		<rect x="302.2" y="254" class="st23" width="14" height="2"/>
		
			<rect x="325.1" y="185.1" transform="matrix(0.5009 -0.8655 0.8655 0.5009 -3.536 378.1052)" class="st23" width="2" height="14"/>
		
			<rect x="371" y="140.1" transform="matrix(0.8665 -0.4992 0.4992 0.8665 -23.7565 205.3261)" class="st23" width="2" height="14"/>
		<path class="st23" d="M434.8,396.3c-77.5,0-140.2-62.8-140.2-140.3s62.8-140.2,140.2-140.2c38.7,0,73.8,15.7,99.2,41.1l15.6-15.6
			c-14.9-14.9-32.2-26.6-51.6-34.8c-20-8.5-41.3-12.8-63.2-12.8c-21.9,0-43.1,4.3-63.2,12.8c-19.3,8.2-36.7,19.9-51.6,34.8
			c-14.9,14.9-26.6,32.2-34.8,51.6c-8.5,20-12.8,41.3-12.8,63.2s4.3,43.1,12.8,63.2c8.2,19.3,19.9,36.7,34.8,51.6
			c14.9,14.9,32.2,26.6,51.6,34.8c20,8.5,41.3,12.8,63.2,12.8c21.9,0,43.1-4.3,63.2-12.8c19.3-8.2,36.7-19.9,51.6-34.8l-15.6-15.6
			C508.6,380.6,473.5,396.3,434.8,396.3z"/>
		<rect x="433.8" y="123.3" class="st23" width="2" height="14"/>
		
			<rect x="490.7" y="146.1" transform="matrix(0.4999 -0.8661 0.8661 0.4999 121.4714 504.6062)" class="st23" width="14" height="2"/>
		
			<rect x="319" y="316.9" transform="matrix(0.8665 -0.4992 0.4992 0.8665 -115.1504 205.1729)" class="st23" width="14" height="2"/>
		<rect x="302.2" y="254" class="st23" width="14" height="2"/>
		
			<rect x="325.1" y="185.1" transform="matrix(0.5009 -0.8655 0.8655 0.5009 -3.536 378.1052)" class="st23" width="2" height="14"/>
		
			<rect x="371" y="140.1" transform="matrix(0.8665 -0.4992 0.4992 0.8665 -23.7565 205.3261)" class="st23" width="2" height="14"/>
		<path class="st23" d="M434.8,396.3c-77.5,0-140.2-62.8-140.2-140.3s62.8-140.2,140.2-140.2c38.7,0,73.8,15.7,99.2,41.1l15.6-15.6
			c-14.9-14.9-32.2-26.6-51.6-34.8c-20-8.5-41.3-12.8-63.2-12.8c-21.9,0-43.1,4.3-63.2,12.8c-19.3,8.2-36.7,19.9-51.6,34.8
			c-14.9,14.9-26.6,32.2-34.8,51.6c-8.5,20-12.8,41.3-12.8,63.2s4.3,43.1,12.8,63.2c8.2,19.3,19.9,36.7,34.8,51.6
			c14.9,14.9,32.2,26.6,51.6,34.8c20,8.5,41.3,12.8,63.2,12.8c21.9,0,43.1-4.3,63.2-12.8c19.3-8.2,36.7-19.9,51.6-34.8l-15.6-15.6
			C508.6,380.6,473.5,396.3,434.8,396.3z"/>
		<rect x="302.3" y="254" class="st23" width="14" height="2"/>
		<rect x="325.1" y="185.1" transform="matrix(0.4999 -0.8661 0.8661 0.4999 -3.273 378.494)" class="st23" width="2" height="14"/>
		
			<rect x="536.8" y="192.1" transform="matrix(0.866 -0.5001 0.5001 0.866 -23.6748 297.8337)" class="st23" width="14" height="2"/>
		<rect x="553.6" y="255" class="st23" width="14" height="2"/>
		
			<rect x="542.7" y="311.9" transform="matrix(0.4999 -0.8661 0.8661 0.4999 -4.2754 630.3976)" class="st23" width="2" height="14"/>
		
			<rect x="319" y="316.8" transform="matrix(0.8667 -0.4988 0.4988 0.8667 -115.053 204.9838)" class="st23" width="14" height="2"/>
		<rect x="302.3" y="254" class="st23" width="14" height="2"/>
		<rect x="325.1" y="185.1" transform="matrix(0.4999 -0.8661 0.8661 0.4999 -3.273 378.494)" class="st23" width="2" height="14"/>
		
			<rect x="536.8" y="192.1" transform="matrix(0.866 -0.5001 0.5001 0.866 -23.6748 297.8337)" class="st23" width="14" height="2"/>
		<rect x="553.6" y="255" class="st23" width="14" height="2"/>
		<path class="st23" d="M434.9,92.6c-89.7,0-162.4,72.7-162.4,162.4c0,89.7,72.7,162.4,162.4,162.4S597.2,344.7,597.2,255
			C597.2,165.3,524.6,92.6,434.9,92.6z M434.9,394.8C357.6,394.8,295,332.2,295,255c0-77.2,62.6-139.9,139.9-139.9
			c77.2,0,139.9,62.6,139.9,139.9C574.7,332.2,512.1,394.8,434.9,394.8z"/>
		
			<rect x="542.7" y="311.9" transform="matrix(0.4999 -0.8661 0.8661 0.4999 -4.2754 630.3976)" class="st23" width="2" height="14"/>
		
			<rect x="319" y="316.8" transform="matrix(0.8667 -0.4988 0.4988 0.8667 -115.053 204.9838)" class="st23" width="14" height="2"/>
		<g class="st23">
			<path class="st28" d="M392.6,340v16.9h-14.5V340H392.6z M387.8,354.5v-12.1H383v12.1H387.8z"/>
		</g>
		<g class="st23">
			<path class="st28" d="M407.5,333v6.3h-4.8V333h-4.8v8.7h9.6v2.4h-9.6v2.4h14.5V333L407.5,333L407.5,333z"/>
		</g>
		<g class="st23">
			<path class="st28" d="M427.3,334.7h-4.8v7.2h4.8V334.7z M432.1,333v16.2h-14.5v-2.4h9.6v-2.4h-9.6V333H432.1z"/>
		</g>
		<g class="st23">
			<path class="st28" d="M451.9,334.8v16.9h-14.5v-2.4h9.6v-2.4h-9.6v-12.1H451.9z M447,337.2h-4.8v7.2h4.8V337.2z"/>
		</g>
		<g class="st23">
			<path class="st28" d="M471.6,337.4v16.9h-14.5v-2.4h9.6v-2.4h-9.6v-12.1H471.6z M466.8,339.8H462v7.2h4.8V339.8z"/>
		</g>
		<g class="st23">
			<path class="st28" d="M491.3,340v16.9h-14.5v-2.4h9.6V352h-9.6V340H491.3z M486.5,342.4h-4.8v7.2h4.8V342.4z"/>
		</g>
	</g>
</g>
</svg>
