<?xml version="1.0" encoding="utf-8"?>
<!-- Generator: Adobe Illustrator 16.0.0, SVG Export Plug-In . SVG Version: 6.00 Build 0)  -->
<!DOCTYPE svg PUBLIC "-//W3C//DTD SVG 1.1//EN" "http://www.w3.org/Graphics/SVG/1.1/DTD/svg11.dtd">
<svg version="1.1" xmlns="http://www.w3.org/2000/svg" xmlns:xlink="http://www.w3.org/1999/xlink" x="0px" y="0px" width="200px"
	 height="200px" viewBox="0 0 200 200" enable-background="new 0 0 200 200" xml:space="preserve">
<g id="Layer_4">
</g>
<g id="Layer_2">
	<rect x="81.72" y="36.31" fill="#FEE48D" width="36.442" height="57.93"/>
	<line stroke="#000000" stroke-miterlimit="10" x1="83.853" y1="62.361" x2="115.769" y2="62.361"/>
	<line stroke="#000000" stroke-miterlimit="10" x1="83.853" y1="51.94" x2="115.769" y2="51.94"/>
	<path fill="#C9202F" d="M91.78,25.03c0,0,6.27-3.82,7.72-4.6c-0.35,1.03-3.73,4.97-4.44,5.41c-0.71,0.43-0.67,0.87-1.02,1
		c-0.36,0.13-1.98,1.75-4.4,4.74c1.721,4.02,5.98,0.86,5.98,0.86s7.47-6.97,9.08-8.38c0.92-0.24,3.95-1.41,5.17-2.13
		c-0.341,0.23-3.19,2.22-2.83,3.48c0.38,1.35-1.319,7.14-1.41,8c-0.09,0.75,0.31,0.91,0.41,2.9c0.01,0.2,0.021,0.42,0.021,0.66
		c0.01,0.11,0.01,0.23,0.01,0.35c0.01,2.96,1.63,3.32,2.92,2.5c0.619-0.4,1.1-1.56,1.41-2.85c0.05-0.22,0.1-0.44,0.14-0.66
		c0.22-1.15,0.319-2.32,0.29-3.06c0.66-0.59,1.59-3.09,2.23-5.36c1.219-0.12,4.33-3.23,4.819-3.87c0.41,0.11,1.479-0.56,1.58-0.8
		c0,0,1.67,0.25,2.36-0.58c-0.051,0.57,1.13,2.25,1.13,2.25s-0.28,0.3,0.229,1.35c-0.51,2.5,0.67,4.27,0.67,4.27s-0.06,0.33-4,3.9
		c-1.57,0.62-2.83,1.26-3.82,1.9h2.25v5.93c1.311-0.54,2.771-0.96,3.9-1.3c2.061-1.95,6.971-4.32,8.521-4.96s2.229-1.19,3.09-2.43
		c0.75-0.05,1.81-0.62,5.04-3.5v3.97h44.29V11.5h-44.29v1.02c-6.51,2.92-15.57-2.81-22.859-2.72c-8.771,4.27-21.081,3.87-24.78,4.16
		c-1.61,2.78,2.119,3.6,3.43,3.7c0,0-4.57,3-7.47,4.98C86.17,26.79,91.78,25.03,91.78,25.03z"/>
	<line stroke="#000000" stroke-miterlimit="10" x1="97.014" y1="46.729" x2="115.769" y2="46.729"/>
	<line stroke="#000000" stroke-miterlimit="10" x1="83.853" y1="46.729" x2="92.895" y2="46.729"/>
	<line stroke="#000000" stroke-miterlimit="10" x1="97.014" y1="57.151" x2="115.769" y2="57.151"/>
	<line stroke="#000000" stroke-miterlimit="10" x1="83.853" y1="57.151" x2="92.895" y2="57.151"/>
	<line stroke="#000000" stroke-miterlimit="10" x1="97.014" y1="67.572" x2="115.769" y2="67.572"/>
	<line stroke="#000000" stroke-miterlimit="10" x1="83.853" y1="67.572" x2="92.895" y2="67.572"/>
	<line stroke="#000000" stroke-miterlimit="10" x1="83.853" y1="41.519" x2="92.895" y2="41.519"/>
</g>
<g id="Layer_3" display="none">
</g>
<g id="Layer_1">
	<g>
		<path fill="#323D38" d="M140.192,185.756c0,5.513-4.47,9.983-9.983,9.983H70.312c-5.513,0-9.982-4.471-9.982-9.983V82.09
			c0-5.513,4.47-9.982,9.982-9.982h59.897c5.514,0,9.983,4.469,9.983,9.982V185.756z"/>
		<g>
			<circle fill="#FFFFFF" cx="100.02" cy="111.694" r="26.598"/>
			<polygon fill="#ABABAB" points="101.019,110.723 101.012,110.723 98.292,110.723 98.286,110.723 88.083,110.723 88.083,113.449 
				98.286,113.449 98.286,130.155 98.292,130.155 101.012,130.155 101.019,130.155 			"/>
			<polygon fill="#BC2726" points="101.399,110.342 101.392,110.342 98.673,110.342 98.667,110.342 88.464,110.342 88.464,113.067 
				98.667,113.067 98.667,129.775 98.673,129.775 101.392,129.775 101.399,129.775 			"/>
			<rect x="99.839" y="86.461" width="0.38" height="2.662"/>
			<rect x="111.798" y="89.666" transform="matrix(0.8667 0.4988 -0.4988 0.8667 60.3094 -43.7292)" width="0.381" height="2.663"/>
			
				<rect x="111.792" y="131.091" transform="matrix(-0.8671 0.4981 -0.4981 -0.8671 275.0414 191.4745)" width="0.378" height="2.663"/>
			<rect x="99.831" y="134.292" width="0.38" height="2.662"/>
			
				<rect x="87.873" y="131.083" transform="matrix(-0.8655 -0.5008 0.5008 -0.8655 97.9691 291.1284)" width="0.38" height="2.662"/>
			
				<rect x="79.123" y="122.324" transform="matrix(-0.4989 -0.8667 0.8667 -0.4989 11.7162 254.0838)" width="0.38" height="2.662"/>
			<rect x="74.783" y="111.503" width="2.663" height="0.381"/>
			<rect x="79.136" y="98.407" transform="matrix(0.5018 -0.865 0.865 0.5018 -46.751 118.3062)" width="0.38" height="2.662"/>
			<rect x="87.896" y="89.657" transform="matrix(0.8675 -0.4974 0.4974 0.8675 -33.5874 55.866)" width="0.38" height="2.663"/>
			<path d="M100.03,138.381c-14.731,0-26.673-11.941-26.673-26.672c0-14.732,11.942-26.673,26.673-26.673
				c7.364,0,14.033,2.986,18.86,7.812l2.959-2.959c-2.834-2.832-6.135-5.057-9.808-6.61c-3.808-1.612-7.85-2.426-12.012-2.426
				c-4.164,0-8.205,0.814-12.013,2.426c-3.676,1.554-6.974,3.779-9.807,6.61c-2.832,2.833-5.057,6.133-6.611,9.808
				c-1.61,3.808-2.426,7.849-2.426,12.013c0,4.162,0.816,8.203,2.426,12.011c1.554,3.675,3.779,6.974,6.611,9.809
				c2.833,2.831,6.131,5.056,9.807,6.609c3.808,1.611,7.849,2.428,12.013,2.428c4.162,0,8.204-0.816,12.012-2.428
				c3.673-1.554,6.974-3.778,9.808-6.609l-2.959-2.961C114.063,135.395,107.395,138.381,100.03,138.381z"/>
			<rect x="99.839" y="86.461" width="0.38" height="2.662"/>
			<rect x="111.798" y="89.666" transform="matrix(0.8667 0.4988 -0.4988 0.8667 60.3094 -43.7292)" width="0.381" height="2.663"/>
			
				<rect x="111.792" y="131.091" transform="matrix(-0.8671 0.4981 -0.4981 -0.8671 275.0414 191.4745)" width="0.378" height="2.663"/>
			<rect x="99.831" y="134.292" width="0.38" height="2.662"/>
			
				<rect x="87.873" y="131.083" transform="matrix(-0.8655 -0.5008 0.5008 -0.8655 97.9691 291.1284)" width="0.38" height="2.662"/>
			
				<rect x="79.123" y="122.324" transform="matrix(-0.4989 -0.8667 0.8667 -0.4989 11.7162 254.0838)" width="0.38" height="2.662"/>
			<rect x="74.783" y="111.503" width="2.663" height="0.381"/>
			<rect x="79.136" y="98.407" transform="matrix(0.5018 -0.865 0.865 0.5018 -46.751 118.3062)" width="0.38" height="2.662"/>
			<rect x="87.896" y="89.657" transform="matrix(0.8675 -0.4974 0.4974 0.8675 -33.5874 55.866)" width="0.38" height="2.663"/>
			<path d="M100.03,138.381c-14.731,0-26.673-11.941-26.673-26.672c0-14.732,11.942-26.673,26.673-26.673
				c7.364,0,14.033,2.986,18.86,7.812l2.959-2.959c-2.834-2.832-6.135-5.057-9.808-6.61c-3.808-1.612-7.85-2.426-12.012-2.426
				c-4.164,0-8.205,0.814-12.013,2.426c-3.676,1.554-6.974,3.779-9.807,6.61c-2.832,2.833-5.057,6.133-6.611,9.808
				c-1.61,3.808-2.426,7.849-2.426,12.013c0,4.162,0.816,8.203,2.426,12.011c1.554,3.675,3.779,6.974,6.611,9.809
				c2.833,2.831,6.131,5.056,9.807,6.609c3.808,1.611,7.849,2.428,12.013,2.428c4.162,0,8.204-0.816,12.012-2.428
				c3.673-1.554,6.974-3.778,9.808-6.609l-2.959-2.961C114.063,135.395,107.395,138.381,100.03,138.381z"/>
			<rect x="74.797" y="111.505" width="2.663" height="0.381"/>
			<rect x="79.143" y="98.405" transform="matrix(0.4999 -0.8661 0.8661 0.4999 -46.705 118.5912)" width="0.38" height="2.662"/>
			<rect x="120.568" y="98.413" transform="matrix(0.4997 0.8662 -0.8662 0.4997 146.8094 -54.7)" width="0.381" height="2.662"/>
			<rect x="122.627" y="111.513" width="2.662" height="0.382"/>
			
				<rect x="120.559" y="122.33" transform="matrix(-0.5008 0.8655 -0.8655 -0.5008 288.2586 81.0801)" width="0.38" height="2.662"/>
			
				<rect x="111.801" y="131.08" transform="matrix(-0.8655 0.5008 -0.5008 -0.8655 275.2407 190.9307)" width="0.38" height="2.663"/>
			<rect x="99.84" y="134.279" width="0.38" height="2.661"/>
			<rect x="87.882" y="131.067" transform="matrix(-0.867 -0.4984 0.4984 -0.867 98.4482 291.0765)" width="0.38" height="2.663"/>
			
				<rect x="79.134" y="122.307" transform="matrix(-0.4978 -0.8673 0.8673 -0.4978 11.5808 253.9822)" width="0.381" height="2.662"/>
			<rect x="74.797" y="111.505" width="2.663" height="0.381"/>
			<rect x="79.143" y="98.405" transform="matrix(0.4999 -0.8661 0.8661 0.4999 -46.705 118.5912)" width="0.38" height="2.662"/>
			<rect x="120.568" y="98.413" transform="matrix(0.4997 0.8662 -0.8662 0.4997 146.8094 -54.7)" width="0.381" height="2.662"/>
			<rect x="122.627" y="111.513" width="2.662" height="0.382"/>
			<path d="M100.021,80.816c-17.053,0-30.877,13.825-30.877,30.878c0,17.055,13.824,30.879,30.877,30.879
				c17.055,0,30.878-13.824,30.878-30.879C130.898,94.644,117.075,80.816,100.021,80.816z M100.021,138.292
				c-14.689,0-26.599-11.908-26.599-26.598c0-14.688,11.91-26.598,26.599-26.598c14.689,0,26.597,11.909,26.597,26.598
				C126.617,126.384,114.71,138.292,100.021,138.292z"/>
			
				<rect x="120.559" y="122.33" transform="matrix(-0.5008 0.8655 -0.8655 -0.5008 288.2586 81.0801)" width="0.38" height="2.662"/>
			
				<rect x="111.801" y="131.08" transform="matrix(-0.8655 0.5008 -0.5008 -0.8655 275.2407 190.9307)" width="0.38" height="2.663"/>
			<rect x="99.84" y="134.279" width="0.38" height="2.661"/>
			<rect x="87.882" y="131.067" transform="matrix(-0.867 -0.4984 0.4984 -0.867 98.4482 291.0765)" width="0.38" height="2.663"/>
			
				<rect x="79.134" y="122.307" transform="matrix(-0.4978 -0.8673 0.8673 -0.4978 11.5808 253.9822)" width="0.381" height="2.662"/>
		</g>
		
			<line fill="none" stroke="#000000" stroke-width="5" stroke-linecap="square" stroke-miterlimit="10" x1="74.082" y1="172.882" x2="126.44" y2="172.882"/>
		
			<line fill="none" stroke="#000000" stroke-width="5" stroke-linecap="square" stroke-miterlimit="10" x1="74.082" y1="182.538" x2="126.44" y2="182.538"/>
		<circle fill="#42B649" cx="69.173" cy="80.816" r="5.61"/>
		<circle fill="#C9202F" cx="130.899" cy="80.816" r="5.61"/>
		<line fill="none" stroke="#C9202F" stroke-width="2" stroke-miterlimit="10" x1="130.826" y1="68.813" x2="130.826" y2="60.875"/>
		<line fill="none" stroke="#C9202F" stroke-width="2" stroke-miterlimit="10" x1="139.314" y1="72.329" x2="144.928" y2="66.716"/>
		<line fill="none" stroke="#C9202F" stroke-width="2" stroke-miterlimit="10" x1="142.83" y1="80.816" x2="150.768" y2="80.816"/>
	</g>
</g>
</svg>
