<?xml version="1.0" encoding="utf-8"?>
<!-- Generator: Adobe Illustrator 16.0.0, SVG Export Plug-In . SVG Version: 6.00 Build 0)  -->
<!DOCTYPE svg PUBLIC "-//W3C//DTD SVG 1.1//EN" "http://www.w3.org/Graphics/SVG/1.1/DTD/svg11.dtd">
<svg version="1.1" id="Layer_1" xmlns="http://www.w3.org/2000/svg" xmlns:xlink="http://www.w3.org/1999/xlink" x="0px" y="0px"
	 width="948.21px" height="324.5px" viewBox="0 0 948.21 324.5" enable-background="new 0 0 948.21 324.5" xml:space="preserve">
<g id="Layer_1_1_" display="none">
	<g display="inline" opacity="0.4" enable-background="new    ">
		<g>
			<g>
				<defs>
					<rect id="SVGID_1_" width="1366" height="768"/>
				</defs>
				<clipPath id="SVGID_2_">
					<use xlink:href="#SVGID_1_"  overflow="visible"/>
				</clipPath>
				<path clip-path="url(#SVGID_2_)" fill="#FFFFFF" d="M424.632,518.645c-34.89,0-68.604-10.483-97.502-30.321
					c-29.521-20.268-51.661-48.82-64.023-82.574c-15.801-43.142-13.855-89.853,5.477-131.528
					c19.332-41.678,53.737-73.332,96.878-89.133c19.099-6.995,38.995-10.542,59.136-10.542c34.892,0,68.607,10.486,97.501,30.323
					c29.523,20.266,51.662,48.82,64.025,82.574c32.615,89.056-13.301,188.045-102.357,220.663
					C464.669,515.098,444.773,518.645,424.632,518.645"/>
			</g>
		</g>
		<g>
			<g>
				<defs>
					<rect id="SVGID_3_" width="1366" height="768"/>
				</defs>
				<clipPath id="SVGID_4_">
					<use xlink:href="#SVGID_3_"  overflow="visible"/>
				</clipPath>
				<path clip-path="url(#SVGID_4_)" d="M424.616,187.044c32.346,0,63.61,9.728,90.415,28.131
					c27.367,18.789,47.893,45.265,59.355,76.565c14.65,40.005,12.85,83.322-5.08,121.97c-17.928,38.649-49.832,68.003-89.838,82.655
					c-17.717,6.487-36.167,9.777-54.836,9.777c-32.353,0-63.622-9.727-90.428-28.129c-27.369-18.788-47.895-45.265-59.36-76.565
					c-14.652-40.005-12.848-83.321,5.079-121.97c17.927-38.648,49.832-68.002,89.838-82.654c17.712-6.488,36.163-9.778,54.849-9.78
					H424.616 M424.599,162.044c-21.063,0.002-42.505,3.64-63.436,11.306c-95.68,35.043-144.836,141.016-109.793,236.696
					c27.378,74.751,98.031,121.099,173.263,121.099c21.065,0,42.505-3.639,63.437-11.305
					c95.68-35.044,144.836-141.017,109.793-236.697C570.484,208.391,499.832,162.037,424.599,162.044"/>
			</g>
		</g>
	</g>
	<rect x="462.5" y="278.5" display="inline" opacity="0.4" fill="#FFFFFF" enable-background="new    " width="351" height="146"/>
	<path display="inline" opacity="0.4" fill="#FFFFFF" enable-background="new    " d="M801,412H475V291h326V412z M826,266H450v171
		h376V266z"/>
	<rect x="425" y="339" display="inline" opacity="0.4" fill="#29ABE2" enable-background="new    " width="0.01" height="144"/>
	<rect x="425" y="339" display="inline" opacity="0.4" fill="#29ABE2" enable-background="new    " width="0.01" height="144"/>
	
		<line display="inline" opacity="0.4" fill="none" stroke="#D83406" stroke-width="20" stroke-miterlimit="10" enable-background="new    " x1="425.5" y1="346.5" x2="425.5" y2="484.5"/>
	
		<line display="inline" opacity="0.4" fill="none" stroke="#D83406" stroke-width="19" stroke-miterlimit="10" enable-background="new    " x1="332" y1="348.5" x2="435.5" y2="348.5"/>
	
		<line display="inline" opacity="0.4" fill="none" stroke="#000000" stroke-width="7" stroke-miterlimit="10" enable-background="new    " x1="272.162" y1="346.5" x2="319.838" y2="346.5"/>
	
		<line display="inline" opacity="0.4" fill="none" stroke="#000000" stroke-width="7" stroke-miterlimit="10" enable-background="new    " x1="346.22" y1="218.377" x2="371.78" y2="258.623"/>
	
		<line display="inline" opacity="0.4" fill="none" stroke="#000000" stroke-width="7" stroke-miterlimit="10" enable-background="new    " x1="425" y1="192.662" x2="425" y2="240.338"/>
	
		<line display="inline" opacity="0.4" fill="none" stroke="#000000" stroke-width="7" stroke-miterlimit="10" enable-background="new    " x1="501.919" y1="217.855" x2="478.082" y2="259.145"/>
	
		<line display="inline" opacity="0.4" fill="none" stroke="#000000" stroke-width="7" stroke-miterlimit="10" enable-background="new    " x1="296.194" y1="266.234" x2="335.806" y2="292.766"/>
	
		<line display="inline" opacity="0.4" fill="none" stroke="#000000" stroke-width="7" stroke-miterlimit="10" enable-background="new    " x1="508.085" y1="292.604" x2="547.914" y2="266.396"/>
	
		<text transform="matrix(1 0 0 1 429.9995 389.4004)" display="inline" opacity="0.4" fill="#FF0000" enable-background="new    " font-family="'ArialMT'" font-size="72"> IME</text>
	
		<rect x="456.711" y="339" display="inline" opacity="0.4" fill="none" stroke="#D83406" stroke-miterlimit="10" enable-background="new    " width="5.977" height="50.4"/>
	
		<polygon display="inline" opacity="0.4" fill="none" stroke="#D83406" stroke-miterlimit="10" enable-background="new    " points="
		515.031,389.4 521.007,389.4 521.007,339 516.328,339 501.279,364.632 499.046,370.393 498.904,370.393 496.527,364.775 
		480.759,339 476.294,339 476.294,389.4 481.912,389.4 481.912,355.488 480.904,348 481.263,348 483.855,354.84 497.751,377.664 
		499.55,377.664 512.656,354.912 515.39,348 515.751,348 515.031,355.561 	"/>
	
		<polygon display="inline" opacity="0.4" fill="none" stroke="#D83406" stroke-miterlimit="10" enable-background="new    " points="
		533.246,389.4 561.039,389.4 561.039,384.072 539.222,384.072 539.222,366.145 558.878,366.145 558.878,360.816 539.222,360.816 
		539.222,344.328 560.677,344.328 560.677,339 533.246,339 	"/>
	
		<text transform="matrix(1 0 0 1 562.9995 418.1992)" display="inline" opacity="0.4" enable-background="new    " font-family="'ArialMT'" font-size="170">RUNCH</text>
	<g display="inline" opacity="0.4" enable-background="new    ">
		<g>
			<g>
				<defs>
					<rect id="SVGID_5_" width="1366" height="768"/>
				</defs>
				<clipPath id="SVGID_6_">
					<use xlink:href="#SVGID_5_"  overflow="visible"/>
				</clipPath>
				<path clip-path="url(#SVGID_6_)" fill="none" stroke="#000000" stroke-miterlimit="10" d="M609.402,308.048
					c7.969,0,14.041,1.896,18.221,5.687c4.178,3.791,6.266,9.255,6.266,16.394c0,7.416-1.965,12.921-5.893,16.519
					c-3.93,3.598-9.906,5.396-17.93,5.396H591.72v-43.994H609.402L609.402,308.048z M644.886,350.174
					c4.455-5.174,6.686-11.855,6.686-20.046c0-11.621-3.625-20.503-10.875-26.646s-17.682-9.215-31.293-9.215h-34.533v123.932h16.85
					v-52.378h16.021c5.479,0,9.92,1.286,13.324,3.86c3.402,2.572,7.232,8.314,11.494,17.224l14.775,31.294h18.014l-16.852-33.867
					c-4.537-9.186-8.328-15.314-11.371-18.387c-3.045-3.071-6.723-5.159-11.041-6.268
					C634.166,358.516,640.431,355.35,644.886,350.174z"/>
			</g>
		</g>
		<g>
			<g>
				<defs>
					<rect id="SVGID_7_" width="1366" height="768"/>
				</defs>
				<clipPath id="SVGID_8_">
					<use xlink:href="#SVGID_7_"  overflow="visible"/>
				</clipPath>
				<path clip-path="url(#SVGID_8_)" fill="none" stroke="#000000" stroke-miterlimit="10" d="M679.958,397.572
					c1.604,5.45,4.316,9.892,8.135,13.32c3.707,3.268,7.912,5.7,12.617,7.307c4.703,1.604,9.961,2.407,15.771,2.407
					c5.863,0,11.148-0.805,15.854-2.407c4.703-1.604,8.881-4.039,12.533-7.307c3.873-3.484,6.6-7.896,8.178-13.237
					c1.576-5.341,2.365-14.347,2.365-27.021v-76.366h-16.77v84.17c0,5.976-0.166,10.237-0.498,12.783
					c-0.33,2.547-0.912,4.512-1.742,5.895c-1.826,3.266-4.398,5.728-7.721,7.388c-3.32,1.66-7.389,2.49-12.203,2.49
					c-4.76,0-8.813-0.83-12.158-2.49c-3.352-1.66-5.908-4.122-7.68-7.388c-0.83-1.383-1.41-3.361-1.742-5.936
					s-0.498-6.875-0.498-12.908v-84.004h-16.85v76.366C677.55,383.143,678.353,392.122,679.958,397.572z"/>
			</g>
		</g>
		<g>
			<g>
				<defs>
					<rect id="SVGID_9_" width="1366" height="768"/>
				</defs>
				<clipPath id="SVGID_10_">
					<use xlink:href="#SVGID_9_"  overflow="visible"/>
				</clipPath>
				<polygon clip-path="url(#SVGID_10_)" fill="none" stroke="#000000" stroke-miterlimit="10" points="769.275,418.199 
					787.121,418.199 787.121,316.514 835.597,418.199 858.507,418.199 858.507,294.684 840.662,294.684 840.662,396.368 
					792.185,294.684 769.275,294.684 				"/>
			</g>
		</g>
		<g>
			<g>
				<defs>
					<rect id="SVGID_11_" width="1366" height="768"/>
				</defs>
				<clipPath id="SVGID_12_">
					<use xlink:href="#SVGID_11_"  overflow="visible"/>
				</clipPath>
				<path clip-path="url(#SVGID_12_)" fill="none" stroke="#000000" stroke-miterlimit="10" d="M959.113,396.617
					c-4.039,3.376-8.398,5.949-13.074,7.72c-4.676,1.771-9.449,2.656-14.318,2.656c-10.9,0-19.063-4.205-24.484-12.617
					c-5.426-8.411-8.137-21.084-8.137-38.019c0-16.987,2.711-29.688,8.137-38.1c5.422-8.412,13.584-12.617,24.484-12.617
					c4.762,0,9.49,0.885,14.195,2.656c4.703,1.771,9.102,4.344,13.197,7.719v-17.182c-4.264-2.27-8.633-3.971-13.115-5.105
					c-4.482-1.134-9.242-1.701-14.277-1.701c-15.77,0-28.068,5.658-36.895,16.975c-8.828,11.318-13.24,27.102-13.24,47.355
					c0,20.365,4.385,36.164,13.156,47.397c8.77,11.234,21.098,16.853,36.979,16.853c5.035,0,9.795-0.568,14.277-1.701
					c4.482-1.135,8.854-2.836,13.115-5.105V396.617L959.113,396.617z"/>
			</g>
		</g>
		<g>
			<g>
				<defs>
					<rect id="SVGID_13_" width="1366" height="768"/>
				</defs>
				<clipPath id="SVGID_14_">
					<use xlink:href="#SVGID_13_"  overflow="visible"/>
				</clipPath>
				<polygon clip-path="url(#SVGID_14_)" fill="none" stroke="#000000" stroke-miterlimit="10" points="983.767,418.199 
					1000.617,418.199 1000.617,355.859 1046.521,355.859 1046.521,418.199 1063.371,418.199 1063.371,294.268 1046.521,294.268 
					1046.521,341.749 1000.617,341.749 1000.617,294.268 983.767,294.268 				"/>
			</g>
		</g>
	</g>
	
		<rect x="567.501" y="435.444" transform="matrix(1 -0.008 0.008 1 -3.5417 6.5474)" display="inline" opacity="0.4" enable-background="new    " width="498.125" height="20.993"/>
	
		<rect x="567.501" y="435.444" transform="matrix(1 -0.008 0.008 1 -3.5417 6.5474)" display="inline" opacity="0.4" fill="none" stroke="#000000" stroke-miterlimit="10" enable-background="new    " width="498.125" height="20.993"/>
</g>
<text transform="matrix(1 0 0 1 0 213.75)"><tspan x="0" y="0" font-family="'SegoeUI-Light'" font-size="150">Trip Clock </tspan><tspan x="664.38" y="0" font-family="'SegoeUI-Light'" font-size="100">Mobile</tspan></text>
</svg>
